<svg width="68" height="54" viewBox="0 0 68 54" fill="none" xmlns="http://www.w3.org/2000/svg">
<g clip-path="url(#clip0_837_15491)">
<mask id="mask0_837_15491" style="mask-type:luminance" maskUnits="userSpaceOnUse" x="64" y="39" width="4" height="15">
<path d="M64.5674 39.3462H67.303V53.1293H64.5674V39.3462Z" fill="white"/>
</mask>
<g mask="url(#mask0_837_15491)">
<path d="M65.4297 52.9454H67.303V40.0071H65.4297V52.9454Z" fill="#434593"/>
</g>
<mask id="mask1_837_15491" style="mask-type:luminance" maskUnits="userSpaceOnUse" x="37" y="39" width="16" height="15">
<path d="M37.6753 39.3462H52.2419V53.1293H37.6753V39.3462Z" fill="white"/>
</mask>
<g mask="url(#mask1_837_15491)">
<path d="M44.8667 39.9196H45.6546L46.3067 40.0071C53.6032 41.8892 53.0123 52.1095 45.5232 53.033H44.2145C36.7343 51.93 36.1521 41.898 43.5624 40.0071L44.2145 39.9196H44.8667ZM44.8667 41.7054L43.9519 41.7929L42.9977 42.0993C38.844 43.9595 39.4786 50.2799 43.9519 51.2472L44.8667 51.3347L45.8296 51.2472C50.4999 50.3324 50.7844 43.6006 46.7444 42.0993L45.8296 41.7929L44.8667 41.7054Z" fill="#434593"/>
</g>
<mask id="mask2_837_15491" style="mask-type:luminance" maskUnits="userSpaceOnUse" x="0" y="39" width="10" height="15">
<path d="M0.698486 39.3462H9.66255V53.1293H0.698486V39.3462Z" fill="white"/>
</mask>
<g mask="url(#mask2_837_15491)">
<path d="M5.09735 41.5347H4.62026L4.2701 41.6222L3.87618 41.7929L3.48662 42.0993L3.31154 42.3619L3.13647 42.7515L3.04893 43.1016V43.5787L3.13647 43.8414L3.224 44.2353L3.48662 44.5373L3.79301 44.7124L4.62026 45.0625L7.23332 46.0211L7.79795 46.2793L8.19188 46.5857L8.66897 47.1504L9.01913 47.7194C10.8224 52.8404 3.38595 55.2346 1.04864 50.8095L0.786026 50.026L0.698486 49.1988H2.4843L2.57183 49.7678L2.74691 50.2449L3.04893 50.595L3.31154 50.9846L3.7011 51.1597L4.05126 51.3348L4.53272 51.4661H5.49128L5.83706 51.3348L6.31853 51.1597L6.70808 50.9846C7.6754 49.8553 7.81546 48.551 6.40607 47.7194L5.66198 47.3254L4.62026 47.0628L3.48662 46.6733L2.65937 46.1962L2.0072 45.7147L1.52574 45.1938L1.26312 44.406L1.13618 43.5787L1.26312 42.839L1.4382 42.0993L1.83213 41.4428L2.26545 40.9657L2.83445 40.4886C4.48458 39.3725 6.8569 39.7139 8.19188 41.3158L8.66897 41.8805L8.93159 42.6202L9.01913 43.4037H7.14578L7.05824 42.9266C6.89192 42.1869 6.21348 41.6704 5.49128 41.5347H5.09735Z" fill="#434593"/>
</g>
<mask id="mask3_837_15491" style="mask-type:luminance" maskUnits="userSpaceOnUse" x="54" y="39" width="9" height="15">
<path d="M54.4829 39.3462H62.3265V53.1293H54.4829V39.3462Z" fill="white"/>
</mask>
<g mask="url(#mask3_837_15491)">
<path d="M55.9318 40.0071H62.0333V41.7929H56.5008V45.9335H62.0333V47.7193H56.5008V52.9454H54.6274V41.3158L54.715 40.7468L55.017 40.401L55.4109 40.0946L55.9318 40.0071Z" fill="#434593"/>
</g>
<mask id="mask4_837_15491" style="mask-type:luminance" maskUnits="userSpaceOnUse" x="24" y="39" width="12" height="15">
<path d="M24.2292 39.3462H35.4343V53.1293H24.2292V39.3462Z" fill="white"/>
</mask>
<g mask="url(#mask4_837_15491)">
<path d="M27.0523 43.0141V52.9455H25.179V41.2283L25.2665 40.6593L25.5729 40.3135L25.9187 40.0071L26.4877 39.9196H26.7897L27.1398 40.0946L27.3149 40.3135L27.6213 40.5717L33.237 49.9385L33.3245 40.0071H35.1979V51.7243L35.1103 52.2933L34.8477 52.6828L34.3706 52.9455L33.8891 53.033H33.5434L33.237 52.9455L32.9744 52.7704L32.7599 52.464L27.0523 43.0141Z" fill="#434593"/>
</g>
<mask id="mask5_837_15491" style="mask-type:luminance" maskUnits="userSpaceOnUse" x="10" y="39" width="14" height="15">
<path d="M10.783 39.3462H23.1085V53.1293H10.783V39.3462Z" fill="white"/>
</mask>
<g mask="url(#mask5_837_15491)">
<path d="M14.1139 49.2863L12.8052 52.9455H10.8049L15.4226 40.7468L15.5977 40.401L15.8997 40.0946L16.2499 40.0071L16.6395 39.9196L17.0334 40.0071L17.3835 40.0946L17.6855 40.401L17.8606 40.7468L22.4346 52.9455H20.4737L19.1693 49.2863H14.1139ZM16.6395 42.4451L14.7661 47.588H18.6003L16.6395 42.4451Z" fill="#434593"/>
</g>
<path d="M50.0533 11.7362L49.0072 10.4319L48.5257 9.86285L47.9611 9.38576C45.5275 7.28481 42.2448 7.81442 39.4216 8.72921L37.2025 9.38576L36.0688 9.68777C33.005 10.3137 29.7879 9.97228 28.5361 6.68516L28.3566 5.81414L28.2734 4.98252L28.4485 4.15527L28.7505 3.28425C29.9192 0.377931 34.3356 -0.357402 37.0712 0.40857L38.4237 0.671189L39.6405 1.06512C43.3784 2.29505 46.346 4.85996 48.4426 8.16458L49.0947 9.29822L50.0533 11.7362Z" fill="#BDA36A"/>
<path d="M50.2284 12.2133L50.3991 13.2156L50.7055 14.3492C51.4146 19.9649 49.2742 25.8826 44.7835 29.4235L43.4747 30.4696L42.1704 31.2094C37.2157 33.9975 30.8121 33.9231 25.9187 31.0343L24.785 30.2946L23.6558 29.4235L24.5268 29.7256L25.4416 29.9006C29.8973 30.601 33.6878 29.3229 36.3315 25.5893L37.3776 23.891L38.2048 22.2365C40.2795 17.5838 41.7984 12.454 47.7029 11.9988H48.9197L50.2284 12.2133Z" fill="#434593"/>
<path d="M28.1859 28.1148L27.3148 28.5088C20.478 30.2246 17.1646 20.9147 17.6855 15.658L17.773 14.7432L18.4296 15.5704L19.1693 16.3101C22.2419 19.5272 25.052 19.2865 28.663 21.278L29.0131 21.6676L29.3151 22.0177C30.6238 23.6678 30.3393 25.9351 29.0131 27.4627L28.536 27.7647L28.1859 28.1148Z" fill="#ACB436"/>
</g>
<defs>
<clipPath id="clip0_837_15491">
<rect width="66.603" height="53" fill="white" transform="translate(0.698486 0.128418)"/>
</clipPath>
</defs>
</svg>
