<svg width="148" height="32" viewBox="0 0 148 32" fill="none" xmlns="http://www.w3.org/2000/svg">
<g clip-path="url(#clip0_837_15569)">
<path d="M126.065 0.370605H125.129L118.168 14.7156L111.123 0.370605H110.103L108.134 16.0895C107.931 17.6591 107.671 18.3577 107.37 19.0237H109.322C109.167 18.4415 109.216 17.3284 109.392 15.9544L110.606 6.3368L116.844 19.0237H117.576L123.827 6.34612L124.988 15.7681C125.12 16.8254 125.12 18.1062 124.953 19.0237H128.859C128.444 18.0736 128.294 17.6498 128.091 16.0802L126.065 0.370605Z" fill="#0072BC"/>
<path d="M37.3898 0.128418C31.6997 0.128418 27.2412 4.34341 27.2412 9.78797C27.2412 15.2279 31.6997 19.4382 37.3898 19.4382C43.0799 19.4382 47.534 15.2279 47.534 9.78797C47.534 4.34341 43.0799 0.128418 37.3898 0.128418ZM37.6767 17.9991C33.7435 17.9991 30.6182 14.4687 30.4549 9.78797C30.2915 5.10258 32.8872 1.56757 37.1029 1.56757C41.0361 1.56757 44.157 5.10258 44.3247 9.78797C44.4837 14.4687 41.6055 17.9991 37.6767 17.9991Z" fill="#0072BC"/>
<mask id="mask0_837_15569" style="mask-type:luminance" maskUnits="userSpaceOnUse" x="130" y="0" width="18" height="20">
<path d="M130.625 0.128418H147.576V19.2053H130.625V0.128418Z" fill="white"/>
</mask>
<g mask="url(#mask0_837_15569)">
<path d="M143.643 19.0237H147.665C146.972 18.3204 146.239 17.2678 145.74 15.9731L139.428 0.375244H138.668L132.245 16.4109C131.751 17.6032 131.305 18.3344 130.762 19.0237H132.581L135.04 12.792H141.207L143.643 19.0237ZM135.539 11.5252L138.134 4.94886L140.708 11.5252H135.539Z" fill="#0072BC"/>
</g>
<path d="M10.0163 8.1625C11.3142 7.51046 12.4619 6.41596 12.4619 4.77654C12.4619 2.9089 11.6364 1.73988 10.087 1.05057C9.11582 0.617431 7.50458 0.435791 5.92865 0.435791C2.9578 0.435791 0.684405 0.435791 0.684405 0.435791C1.00224 0.976055 1.16998 1.76782 1.16998 2.84835C1.16998 4.91626 1.16998 14.492 1.16998 16.5087C1.16998 17.864 0.984581 18.502 0.666748 19.0237C0.666748 19.0237 1.65556 19.0237 6.3436 19.0237C8.10493 19.0237 10.1753 18.6697 11.1685 18.1527C12.7886 17.3097 13.7906 15.7681 13.7906 13.486C13.7906 10.3189 11.557 8.86578 10.0163 8.1625ZM4.13643 1.66536C4.41453 1.64673 4.83831 1.64673 5.39452 1.64673C5.8801 1.64673 6.67468 1.70262 7.08963 1.80974C8.46691 2.17302 9.42041 3.14177 9.42041 4.79051C9.42041 6.34144 8.47573 7.2217 7.28386 7.42197C7.00134 7.46854 6.20234 7.5384 5.91541 7.5384C5.24884 7.5384 4.62201 7.52909 4.13643 7.51046V1.66536ZM7.67674 17.659C7.32359 17.7382 6.45396 17.8127 6.19793 17.8127C5.93748 17.8127 4.47633 17.8081 4.14084 17.7941V8.77263C4.38363 8.76797 5.39893 8.754 5.72118 8.754C6.04343 8.754 6.90423 8.80989 7.37656 8.91701C9.41599 9.38276 10.6608 10.8778 10.6344 13.5465C10.6299 15.6098 9.64554 17.2166 7.67674 17.659Z" fill="#0072BC"/>
<path d="M77.3837 17.7522L77.3881 8.80989H83.6565L84.0803 7.54306H77.3881L77.3925 1.70262C77.3925 1.70262 81.8466 1.70262 82.2527 1.70262C83.321 1.70262 84.2171 1.82371 85.2986 2.44315L84.429 0.435791H73.9361C74.2407 0.976055 74.3996 1.76782 74.3996 2.84835C74.3996 4.91626 74.3996 14.492 74.3996 16.5087C74.3996 17.864 74.223 18.502 73.9229 19.0237H85.4443L86.3448 17.007C85.2589 17.6078 84.1641 17.7522 82.959 17.7522C82.447 17.7522 77.3837 17.7522 77.3837 17.7522Z" fill="#0072BC"/>
<path d="M62.4103 0.799072C61.4833 0.561541 59.7573 0.435791 59.1923 0.435791C58.8126 0.435791 52.0499 0.435791 52.0499 0.435791C52.3589 0.976055 52.5178 1.76782 52.5178 2.84835C52.5178 4.91626 52.5178 14.492 52.5178 16.5087C52.5178 17.864 52.3456 18.502 52.0366 19.0237C52.0366 19.0237 58.0092 19.0237 58.7244 19.0237C59.4439 19.0237 60.883 18.9352 61.7173 18.8094C66.732 18.0736 69.6499 14.5572 69.6499 9.85781C69.6499 5.27023 66.679 1.90289 62.4103 0.799072ZM60.5563 17.6544C60.0575 17.7336 58.9892 17.7708 58.4374 17.7708C56.9939 17.7708 56.0713 17.7755 55.5107 17.7243V1.78645C56.0713 1.76782 57.272 1.73056 57.9519 1.73056C58.8259 1.73056 60.5607 1.90289 61.5186 2.26617C64.41 3.35136 66.3612 6.04802 66.3612 9.81124C66.3612 14.0402 64.5954 17.0536 60.5563 17.6544Z" fill="#0072BC"/>
<path d="M22.7563 0.435791H18.8716C19.1806 0.976055 19.3351 1.76782 19.3351 2.84835C19.3351 4.91626 19.3351 14.492 19.3351 16.5087C19.3351 17.864 19.163 18.502 18.8584 19.0237H22.7474C22.4384 18.4834 22.2795 17.6916 22.2795 16.6065C22.2795 14.5386 22.2795 4.96283 22.2795 2.95081C22.2795 1.59084 22.4561 0.957426 22.7563 0.435791Z" fill="#0072BC"/>
<path d="M97.3455 10.3562C99.6718 10.1094 102.532 8.75872 102.532 5.61028C102.532 2.55499 100.643 1.30214 98.5153 0.789817C96.882 0.393933 94.9794 0.435851 93.8272 0.435851C93.4873 0.435851 90.1766 0.435851 90.1766 0.435851C90.4812 0.976115 90.6401 1.76788 90.6401 2.84841C90.6401 4.91632 90.6401 14.492 90.6401 16.5087C90.6401 17.864 90.4679 18.5021 90.1633 19.0237H94.1407C93.7434 18.3065 93.633 17.4542 93.633 16.5273V1.69336C94.1318 1.68405 95.5047 1.62816 96.5244 1.875C98.8199 2.41992 99.4864 3.97551 99.4864 5.66151C99.4864 7.75737 98.2328 10.1792 94.6527 9.35487L94.251 9.62966C97.2704 14.5246 99.9058 17.4169 101.861 19.0237H106.368C103.221 16.8394 99.8352 13.7096 97.3455 10.3562Z" fill="#0072BC"/>
<path d="M1.5981 29.3306H3.55365V29.9734L0.684326 29.9687L0.688741 24.9573H1.60251L1.5981 29.3306Z" fill="#0072BC"/>
<path d="M5.73877 29.9734H4.92212L7.07632 24.948H7.61929L9.56602 29.978H8.62135L8.14018 28.7345H6.25967L5.73877 29.9734ZM7.22641 26.3406L6.49363 28.1477H7.91505L7.22641 26.3406Z" fill="#0072BC"/>
<path d="M11.482 24.9666H13.0093C14.0776 24.9666 14.7397 25.4742 14.7397 26.1263C14.7397 26.7597 14.2498 27.1276 13.8789 27.258C14.6294 27.3465 15.19 27.8775 15.19 28.5062C15.19 29.3632 14.263 29.9826 13.2874 29.9826L11.4775 29.978L11.482 24.9666ZM14.2321 28.5388C14.2321 28.0684 13.8613 27.7144 13.1241 27.7144H12.3825V29.4004H13.0844C13.8039 29.4004 14.2321 29.0418 14.2321 28.5388ZM12.8327 27.1416C13.4287 27.1416 13.8216 26.8062 13.8216 26.2893C13.8304 25.8608 13.5037 25.5487 12.8283 25.5441H12.3825V27.1416H12.8327Z" fill="#0072BC"/>
<path d="M22.4073 27.4862C22.4073 29.0651 21.2022 30.0851 19.7322 30.0851C18.1916 30.0804 17.0571 29.0744 17.0571 27.4816C17.0615 25.9912 18.1784 24.8734 19.7366 24.8734C21.3876 24.8781 22.4073 25.9586 22.4073 27.4862ZM18.0327 27.4816C18.0283 28.6133 18.686 29.4517 19.7322 29.4517C20.774 29.4517 21.4362 28.6133 21.4362 27.4862C21.4362 26.3591 20.7784 25.5115 19.7322 25.5115C18.6904 25.5068 18.0327 26.3312 18.0327 27.4816Z" fill="#0072BC"/>
<path d="M27.5237 30.0665L26.0493 27.7378H25.5019V29.9874H24.5881L24.5925 24.976H26.0625C27.3383 24.9806 27.9563 25.6373 27.9563 26.2754C27.9563 26.9647 27.3427 27.4351 26.9454 27.5515L28.5522 29.992L27.5237 30.0665ZM25.9831 27.151C26.7203 27.151 27.0513 26.7272 27.0513 26.3452C27.0513 25.94 26.7379 25.5628 25.9919 25.5628H25.5019V27.151H25.9831Z" fill="#0072BC"/>
<path d="M30.5871 29.9919H29.7749L31.9203 24.9666H32.4677L34.41 30.0013L33.4653 29.9966L32.9841 28.7577H31.1036L30.5871 29.9919ZM32.0792 26.3591L31.342 28.1709H32.7678L32.0792 26.3591Z" fill="#0072BC"/>
<path d="M35.1516 24.9899H39.4247V25.6373H37.7472L37.7428 30.0013H36.8335L36.8379 25.6326H35.1516V24.9899Z" fill="#0072BC"/>
<path d="M45.9581 27.5002C45.9581 29.0838 44.7574 30.1038 43.283 30.0991C41.738 30.0991 40.6079 29.0931 40.6079 27.5002C40.6123 26.0145 41.7292 24.8967 43.283 24.8967C44.9428 24.8967 45.9581 25.9819 45.9581 27.5002ZM41.5835 27.5002C41.5791 28.6273 42.2368 29.4703 43.283 29.4703C44.3248 29.4703 44.9869 28.632 44.9869 27.5002C44.9869 26.3778 44.3292 25.5255 43.283 25.5255C42.2412 25.5255 41.5835 26.3499 41.5835 27.5002Z" fill="#0072BC"/>
<path d="M48.1387 30.0107L48.1431 24.9993H49.048L49.0436 30.0107H48.1387Z" fill="#0072BC"/>
<path d="M54.3762 30.0945L52.8974 27.7611H52.3544L52.35 30.0153H51.4407L51.4451 24.9993L52.9151 25.0039C54.1908 25.0039 54.8088 25.6653 54.8088 26.294C54.8088 26.988 54.1952 27.4584 53.7935 27.5702L55.4048 30.0153L54.3762 30.0945ZM52.8356 27.1743C53.5728 27.1743 53.8995 26.7551 53.8995 26.3686C53.9039 25.9634 53.5905 25.5908 52.8444 25.5908H52.3544V27.1743H52.8356Z" fill="#0072BC"/>
<path d="M60.5033 30.02L57.3118 30.0153L57.3162 25.0039H60.4106V25.6466H58.2255V27.1184H59.8235V27.7611L58.2211 27.7565V29.3773L60.5033 29.3819V30.02Z" fill="#0072BC"/>
<path d="M65.7871 25.0132H67.4205C69.1244 25.0132 70.2854 25.9586 70.2854 27.5049C70.2854 28.9534 68.939 30.0246 67.416 30.0246H65.7783L65.7871 25.0132ZM67.4425 29.3912C68.3519 29.3912 69.3098 28.6367 69.3098 27.5049C69.3098 26.2195 68.3916 25.6559 67.4293 25.6559L66.6921 25.6513L66.6877 29.3865L67.4425 29.3912Z" fill="#0072BC"/>
<path d="M75.6576 30.0339H72.4661L72.4705 25.0178H75.5649V25.6606H73.3798V27.1323H74.9822L74.9778 27.7704H73.3798V29.3958H75.6576V30.0339Z" fill="#0072BC"/>
<path d="M80.6328 30.1131L79.1584 27.7843H78.611V30.0339H77.6973L77.7017 25.0225H79.1761C80.4474 25.0271 81.0654 25.6885 81.0654 26.3172C81.0654 27.0065 80.4518 27.4816 80.0501 27.598L81.6614 30.0385L80.6328 30.1131ZM79.0922 27.1975C79.8294 27.1975 80.1605 26.7737 80.1605 26.3918C80.1649 25.9866 79.8471 25.6093 79.101 25.6093H78.611V27.1928L79.0922 27.1975Z" fill="#0072BC"/>
<path d="M88.8036 30.0432H87.9119L87.8546 26.6619L86.3404 30.0944H85.771L84.3187 26.7271L84.1862 30.0385H83.4358L83.6477 25.0271H84.4996L86.1594 28.9207L87.8634 25.0318H88.6845L88.8036 30.0432Z" fill="#0072BC"/>
<path d="M91.4258 30.0479H90.6135L92.7589 25.0178H93.3063L95.253 30.0479H94.3083L93.8272 28.809L91.9422 28.8043L91.4258 30.0479ZM92.9178 26.4104L92.1806 28.2221H93.6065L92.9178 26.4104Z" fill="#0072BC"/>
<path d="M95.9946 25.0365L100.268 25.0412V25.6885H98.5859V30.0526H97.6765V25.6885L95.9946 25.6839V25.0365Z" fill="#0072BC"/>
<path d="M106.796 27.5562C106.796 29.135 105.591 30.1597 104.121 30.155C102.581 30.155 101.446 29.1444 101.446 27.5515C101.446 26.0658 102.563 24.948 104.126 24.948C105.781 24.948 106.801 26.0332 106.796 27.5562ZM102.422 27.5515C102.422 28.6833 103.08 29.5263 104.121 29.5263C105.168 29.5263 105.825 28.6833 105.825 27.5562C105.825 26.4291 105.168 25.5814 104.126 25.5768C103.08 25.5768 102.422 26.4011 102.422 27.5515Z" fill="#0072BC"/>
<path d="M109.891 29.4238H111.855V30.0618H108.982V25.0504H109.895L109.891 29.4238Z" fill="#0072BC"/>
<path d="M118.574 27.5654C118.57 29.1443 117.369 30.1643 115.895 30.1643C114.354 30.1643 113.224 29.1536 113.224 27.5608C113.224 26.0751 114.345 24.9573 115.899 24.9573C117.554 24.9573 118.574 26.0425 118.574 27.5654ZM114.199 27.5654C114.199 28.6879 114.853 29.5309 115.899 29.5356C116.941 29.5356 117.598 28.6926 117.598 27.5654C117.598 26.4383 116.945 25.5907 115.899 25.5907C114.857 25.5907 114.199 26.4151 114.199 27.5654Z" fill="#0072BC"/>
<path d="M123.328 30.1689C121.691 30.1689 120.543 29.0232 120.543 27.5654C120.543 26.1123 121.708 24.9619 123.32 24.9619C124.339 24.9666 124.843 25.2041 125.081 25.3019L124.812 25.9213C124.635 25.8422 124.136 25.6326 123.364 25.6279C122.344 25.6279 121.514 26.5035 121.514 27.5701C121.514 28.7484 122.401 29.5029 123.426 29.5029C123.969 29.5029 124.176 29.4377 124.375 29.3772V27.9147L125.266 27.9194V29.7963C125.015 29.9081 124.397 30.1689 123.328 30.1689Z" fill="#0072BC"/>
<path d="M127.389 30.0759L127.394 25.0645L128.294 25.0691L128.286 30.0759H127.389Z" fill="#0072BC"/>
<path d="M135.768 30.4205L135.468 31.1285L132.364 30.0852C131.146 29.6381 130.484 28.8789 130.484 27.5748C130.484 26.0844 131.601 24.9713 133.159 24.9713C134.81 24.9713 135.83 26.0565 135.83 27.5795C135.83 28.7671 135.048 29.7452 134.064 29.9781L135.768 30.4205ZM131.455 27.5795C131.455 28.7066 132.108 29.5542 133.15 29.5542C134.201 29.5542 134.859 28.7066 134.859 27.5795C134.859 26.457 134.201 25.6047 133.155 25.6047C132.113 25.6001 131.455 26.4524 131.455 27.5795Z" fill="#0072BC"/>
<path d="M142.125 28.4178C142.125 29.2235 141.52 30.1876 139.992 30.183C138.611 30.183 137.865 29.4844 137.869 28.4457V25.0691L138.783 25.0784L138.774 28.3573C138.774 29.1397 139.167 29.5309 140.059 29.5309C140.906 29.5309 141.299 28.9581 141.299 28.3573L141.304 25.0784H142.129L142.125 28.4178Z" fill="#0072BC"/>
<mask id="mask1_837_15569" style="mask-type:luminance" maskUnits="userSpaceOnUse" x="144" y="23" width="4" height="9">
<path d="M144.186 23.9746H147.576V31.1285H144.186V23.9746Z" fill="white"/>
</mask>
<g mask="url(#mask1_837_15569)">
<path d="M147.665 30.0944H144.478V25.0784H147.572V25.7211L145.387 25.7164V27.1929H146.985V27.8309H145.387V29.4517L147.665 29.4564V30.0944Z" fill="#0072BC"/>
</g>
</g>
<defs>
<clipPath id="clip0_837_15569">
<rect width="147" height="31" fill="white" transform="translate(0.666748 0.128418)"/>
</clipPath>
</defs>
</svg>
