<svg width="123" height="54" viewBox="0 0 123 54" fill="none" xmlns="http://www.w3.org/2000/svg">
<g id="262777 1" clip-path="url(#clip0_832_985)">
<g id="surface1">
<path id="Vector" fill-rule="evenodd" clip-rule="evenodd" d="M29.6887 52.1637L30.0853 50.039H31.0018L30.9299 50.3287C31.0011 50.2123 31.0861 50.1232 31.1826 50.0623C31.2799 50.0013 31.3895 49.9705 31.5114 49.9705C31.5265 49.9705 31.5388 49.9705 31.547 49.9705C31.5566 49.9705 31.5792 49.9732 31.6176 49.978C31.6553 49.9828 31.7012 49.991 31.7566 50.004L31.5957 50.8705C31.5806 50.8664 31.5498 50.8582 31.5032 50.8438C31.4566 50.8308 31.4244 50.8219 31.4073 50.8171C31.3505 50.8048 31.2998 50.7993 31.2546 50.7993C31.1395 50.7993 31.0525 50.8287 30.9943 50.8877C30.936 50.9466 30.8929 51.0562 30.8641 51.2158L30.6915 52.1637H29.6887ZM33.0588 50.8342C32.9779 50.8342 32.9115 50.8657 32.8594 50.9294C32.8074 50.9938 32.782 51.0753 32.782 51.1753C32.782 51.2493 32.7998 51.3075 32.8368 51.35C32.8745 51.3925 32.9286 51.4137 32.9992 51.4137C33.0855 51.4137 33.156 51.3829 33.2115 51.3212C33.267 51.2596 33.2951 51.1815 33.2951 51.087C33.2951 51.0075 33.2732 50.9459 33.2293 50.902C33.1889 50.8568 33.132 50.8342 33.0588 50.8342ZM33.4889 50.039H34.465L34.0705 52.1637H33.1266L33.2033 51.8781C33.1156 51.9987 33.0183 52.0891 32.9115 52.1507C32.8594 52.1795 32.8046 52.2014 32.7478 52.2165C32.6909 52.2316 32.6293 52.2391 32.5622 52.2391C32.3361 52.2391 32.1491 52.1514 32.0012 51.9761C31.8532 51.8007 31.7792 51.574 31.7792 51.2959C31.7792 51.1342 31.8046 50.976 31.856 50.8205C31.908 50.665 31.9806 50.5246 32.0745 50.4C32.1806 50.2602 32.2991 50.1541 32.4306 50.0808C32.5622 50.0075 32.7019 49.9705 32.8498 49.9705C32.9807 49.9705 33.0971 50.002 33.1985 50.0643C33.2985 50.1267 33.3834 50.2198 33.4512 50.3445L33.4889 50.039ZM35.4787 49.9294C35.3294 49.9294 35.2041 49.8835 35.1034 49.7903C35.0027 49.6979 34.9527 49.5842 34.9527 49.4492C34.9527 49.3061 35.0123 49.1807 35.1315 49.0725C35.25 48.9643 35.3931 48.9102 35.5589 48.9102C35.7096 48.9102 35.8342 48.956 35.9342 49.0478C36.0349 49.1396 36.0849 49.2533 36.0849 49.3896C36.0849 49.5335 36.0254 49.6588 35.9055 49.7677C35.7863 49.8753 35.6445 49.9294 35.4787 49.9294ZM34.5287 52.1637L34.9198 50.0383H35.9219L35.5301 52.1637H34.5287ZM35.9843 52.1637L36.5699 48.9787H37.5795L37.3823 50.0177C37.3741 50.0678 37.361 50.1191 37.3453 50.1719C37.3309 50.2267 37.3145 50.2828 37.2939 50.3404C37.4049 50.2136 37.5158 50.1205 37.6275 50.0623C37.7391 50.004 37.8645 49.9753 38.0042 49.9753C38.1926 49.9753 38.3412 50.0321 38.4508 50.1452C38.5597 50.2589 38.6145 50.413 38.6145 50.6054V50.6301C38.6145 50.6582 38.6138 50.6863 38.6125 50.715C38.6111 50.7438 38.609 50.7733 38.6049 50.8034C38.6049 50.8308 38.6022 50.8609 38.5974 50.8945C38.5926 50.9281 38.5858 50.9651 38.5782 51.0048L38.3666 52.1637H37.3569L37.5542 51.0945L37.5686 50.9897L37.5754 50.8877C37.5754 50.8493 37.5631 50.8185 37.5398 50.7938C37.5172 50.7698 37.4871 50.7575 37.4494 50.7575C37.3754 50.7575 37.3165 50.7924 37.2727 50.8609C37.2288 50.9288 37.1912 51.0486 37.1597 51.2199L36.985 52.1637H35.9843ZM40.1502 50.8342C40.0694 50.8342 40.003 50.8657 39.9509 50.9294C39.8988 50.9938 39.8728 51.0753 39.8728 51.1753C39.8728 51.2493 39.8913 51.3075 39.9283 51.35C39.9653 51.3925 40.0194 51.4137 40.0906 51.4137C40.1769 51.4137 40.2475 51.3829 40.303 51.3212C40.3585 51.2596 40.3865 51.1815 40.3865 51.087C40.3865 51.0075 40.3646 50.9459 40.3208 50.902C40.2797 50.8568 40.2228 50.8342 40.1502 50.8342ZM40.5797 50.039H41.5565L41.1612 52.1637H40.218L40.2947 51.8781C40.2071 51.9987 40.1091 52.0891 40.003 52.1507C39.9509 52.1795 39.8961 52.2014 39.8392 52.2165C39.7824 52.2316 39.7207 52.2391 39.6536 52.2391C39.4276 52.2391 39.2406 52.1514 39.0926 51.9761C38.944 51.8007 38.8707 51.574 38.8707 51.2959C38.8707 51.1342 38.896 50.976 38.9474 50.8205C38.9988 50.665 39.0721 50.5246 39.1659 50.4C39.2721 50.2602 39.3906 50.1541 39.5214 50.0808C39.6536 50.0075 39.7927 49.9705 39.9413 49.9705C40.0721 49.9705 40.1886 50.002 40.2893 50.0643C40.39 50.1267 40.4749 50.2198 40.5427 50.3445L40.5797 50.039ZM41.5859 52.1637L41.9825 50.039H42.9243L42.8627 50.3445C42.9839 50.2226 43.1072 50.1301 43.2319 50.0657C43.2935 50.0356 43.3559 50.0123 43.4196 49.9951C43.4819 49.9794 43.5456 49.9705 43.61 49.9705C43.7922 49.9705 43.9395 50.0294 44.0518 50.1452C44.1641 50.2616 44.2203 50.4157 44.2203 50.6054C44.2203 50.6315 44.2196 50.6602 44.2182 50.6911C44.2169 50.7219 44.2141 50.7623 44.2093 50.8109C44.2039 50.8609 44.1943 50.9253 44.1799 51.0068L43.9675 52.1637H42.9586L43.1552 51.0945L43.1702 50.9877L43.1757 50.8877C43.1757 50.8493 43.1648 50.8185 43.1415 50.7938C43.1182 50.7698 43.088 50.7575 43.0511 50.7575C42.9757 50.7575 42.9161 50.7924 42.873 50.8609C42.8284 50.9288 42.7915 51.0473 42.762 51.2158L42.5894 52.1637H41.5859ZM44.3641 52.1637L44.7607 50.039H45.6772L45.6053 50.3287C45.6765 50.2123 45.7615 50.1232 45.8581 50.0623C45.9553 50.0013 46.0649 49.9705 46.1868 49.9705C46.2019 49.9705 46.2142 49.9705 46.2225 49.9705C46.232 49.9705 46.2553 49.9732 46.293 49.978C46.3307 49.9828 46.3766 49.991 46.4321 50.004L46.2711 50.8705C46.2567 50.8664 46.2259 50.8582 46.1786 50.8438C46.132 50.8308 46.0998 50.8219 46.0827 50.8171C46.0259 50.8048 45.9752 50.7993 45.93 50.7993C45.8149 50.7993 45.7286 50.8287 45.6697 50.8877C45.6121 50.9466 45.5683 51.0562 45.5395 51.2158L45.3669 52.1637H44.3641ZM47.4102 50.8301H47.9205V50.7993C47.9205 50.7349 47.902 50.6822 47.8657 50.6418C47.8294 50.6013 47.7808 50.5808 47.7191 50.5808C47.6417 50.5808 47.5787 50.6007 47.5294 50.6397C47.4801 50.6787 47.4403 50.7424 47.4102 50.8301ZM48.7678 51.2247H47.3574C47.3574 51.3301 47.38 51.4123 47.4266 51.4719C47.4718 51.5315 47.5349 51.561 47.6143 51.561C47.6732 51.561 47.7239 51.5473 47.7664 51.5206C47.8088 51.4932 47.8575 51.4438 47.9123 51.3733L48.6664 51.5329C48.5431 51.7658 48.3828 51.9425 48.1869 52.0624C47.9904 52.1829 47.7595 52.2432 47.4951 52.2432C47.1889 52.2432 46.9355 52.1507 46.7369 51.9665C46.5382 51.7809 46.4389 51.5425 46.4389 51.2507C46.4389 51.0794 46.4677 50.9185 46.5252 50.7685C46.5827 50.6178 46.6677 50.4835 46.7793 50.3671C46.9019 50.2417 47.0451 50.1438 47.2081 50.0746C47.3725 50.0054 47.5438 49.9705 47.7232 49.9705C48.0315 49.9705 48.2849 50.0609 48.4849 50.2404C48.6842 50.4198 48.7835 50.6472 48.7835 50.9226C48.7835 50.9397 48.7829 50.9651 48.7815 50.9993C48.7801 51.0329 48.7794 51.0589 48.7794 51.0747L48.7678 51.2247ZM48.8925 52.1637L49.4863 48.9787H50.4747L50.1131 50.926L50.7227 50.039H51.8269L50.9515 51.0911L51.4255 52.1637H50.3658L50.0637 51.2123L49.887 52.1637H48.8925ZM52.6385 52.1637H51.6501L52.2378 48.9787H53.2283L52.6385 52.1637ZM54.4845 50.8342C54.4037 50.8342 54.3373 50.8657 54.2852 50.9294C54.2338 50.9938 54.2078 51.0753 54.2078 51.1753C54.2078 51.2493 54.2256 51.3075 54.2633 51.35C54.3003 51.3925 54.3544 51.4137 54.4249 51.4137C54.5112 51.4137 54.5825 51.3829 54.6373 51.3212C54.6928 51.2596 54.7208 51.1815 54.7208 51.087C54.7208 51.0075 54.6996 50.9459 54.6551 50.902C54.6147 50.8568 54.5578 50.8342 54.4845 50.8342ZM54.9147 50.039H55.8908L55.4962 52.1637H54.553L54.6291 51.8781C54.5414 51.9987 54.4441 52.0891 54.3373 52.1507C54.2852 52.1795 54.2304 52.2014 54.1742 52.2165C54.1174 52.2316 54.0551 52.2391 53.9879 52.2391C53.7619 52.2391 53.5749 52.1514 53.4269 51.9761C53.279 51.8007 53.205 51.574 53.205 51.2959C53.205 51.1342 53.2304 50.976 53.2817 50.8205C53.3338 50.665 53.4064 50.5246 53.5002 50.4C53.6064 50.2602 53.7249 50.1541 53.8564 50.0808C53.9879 50.0075 54.1277 49.9705 54.2756 49.9705C54.4071 49.9705 54.5229 50.002 54.6243 50.0643C54.7243 50.1267 54.8092 50.2198 54.8777 50.3445L54.9147 50.039ZM55.9202 52.1637L56.3175 50.039H57.2586L57.197 50.3445C57.3196 50.215 57.4395 50.1198 57.5552 50.0602C57.671 50.0006 57.7909 49.9705 57.9162 49.9705C58.045 49.9705 58.1539 50.0054 58.2436 50.0732C58.3334 50.1417 58.4046 50.2486 58.458 50.3924C58.5573 50.252 58.6717 50.1479 58.8039 50.0773C58.8704 50.0424 58.9402 50.015 59.0101 49.9972C59.0807 49.9801 59.1567 49.9705 59.2375 49.9705C59.4272 49.9705 59.5814 50.0294 59.6978 50.1465C59.8143 50.2637 59.8725 50.4198 59.8725 50.6137C59.8725 50.6397 59.8718 50.6671 59.8697 50.6959C59.8684 50.7246 59.8656 50.7644 59.8608 50.8144C59.856 50.8644 59.8464 50.9281 59.8314 51.0068L59.6156 52.1637H58.606L58.8156 51.0986L58.8306 51.0007L58.8368 50.8931C58.8368 50.8541 58.8265 50.8219 58.806 50.7979C58.7847 50.774 58.756 50.7623 58.719 50.7623C58.6484 50.7623 58.593 50.7938 58.5539 50.8575C58.5149 50.9212 58.4793 51.0418 58.4464 51.2199L58.2751 52.1637H57.2586L57.4703 51.0993L57.4854 50.9966L57.4908 50.9103C57.4908 50.8637 57.4799 50.8274 57.458 50.8014C57.4354 50.7753 57.4059 50.7623 57.3696 50.7623C57.2977 50.7623 57.2429 50.7938 57.2038 50.8575C57.1648 50.9212 57.1292 51.0418 57.0963 51.2199L56.9237 52.1637H55.9202Z" fill="#E30016"/>
<path id="Vector_2" fill-rule="evenodd" clip-rule="evenodd" d="M60.6548 52.2233C60.5068 52.2233 60.3787 52.174 60.2705 52.0754C60.1623 51.9767 60.1082 51.8576 60.1082 51.7178C60.1082 51.5452 60.1705 51.3986 60.2945 51.2788C60.4178 51.1589 60.5678 51.0993 60.7431 51.0993C60.8993 51.0993 61.0288 51.1493 61.1329 51.2479C61.2356 51.3479 61.2877 51.4705 61.2877 51.6171C61.2877 51.7781 61.2253 51.9199 61.1 52.0411C60.974 52.163 60.826 52.2233 60.6548 52.2233ZM61.8754 52.1637L61.5144 50.0383H62.4692L62.5227 50.5047C62.5295 50.5513 62.535 50.5876 62.5377 50.6116C62.5405 50.6363 62.5418 50.665 62.5418 50.6979L62.5535 51.0048L62.9953 50.0383H63.6515L63.7145 50.5726L63.7296 50.7623L63.7357 50.9144L63.7337 50.9876L63.7316 51.0315L64.1892 50.0383H65.2125L64.0851 52.1637H63.2652L63.172 51.1068C63.135 51.226 63.0727 51.376 62.985 51.5555L62.9562 51.613L62.6877 52.1637H61.8754ZM66.3318 50.8219C66.2523 50.8219 66.1845 50.8554 66.1276 50.9226C66.0708 50.989 66.042 51.0705 66.042 51.1664C66.042 51.237 66.0612 51.2938 66.1016 51.337C66.1434 51.3801 66.1982 51.4007 66.2633 51.4007C66.3496 51.4007 66.4201 51.3685 66.4736 51.3041C66.5277 51.2404 66.5551 51.1568 66.5551 51.0561C66.5551 50.9829 66.5359 50.926 66.4955 50.8842C66.4557 50.8424 66.4009 50.8219 66.3318 50.8219ZM65.1064 51.2548C65.1064 51.0808 65.1365 50.9185 65.1961 50.7664C65.2557 50.6137 65.342 50.4815 65.4557 50.3671C65.5804 50.2403 65.7235 50.1424 65.8852 50.076C65.9633 50.0444 66.0461 50.0191 66.1338 50.002C66.2215 49.9842 66.3098 49.9753 66.3989 49.9753C66.7263 49.9753 66.988 50.0671 67.1852 50.2513C67.3818 50.4356 67.4798 50.6822 67.4798 50.9897C67.4798 51.1322 67.4551 51.2712 67.4065 51.4075C67.3585 51.5425 67.2873 51.6664 67.1941 51.7767C67.0708 51.9247 66.9202 52.0398 66.7421 52.1213C66.564 52.2028 66.3735 52.2432 66.1708 52.2432C65.8605 52.2432 65.6064 52.1507 65.4064 51.9651C65.2064 51.7788 65.1064 51.5425 65.1064 51.2548ZM67.6072 52.1637L68.0045 50.039H68.9203L68.849 50.3287C68.9196 50.2123 69.0045 50.1232 69.1011 50.0623C69.199 50.0013 69.3079 49.9705 69.4306 49.9705C69.4449 49.9705 69.458 49.9705 69.4662 49.9705C69.4751 49.9705 69.4984 49.9732 69.536 49.978C69.5744 49.9828 69.6196 49.991 69.6751 50.004L69.5148 50.8705C69.4997 50.8664 69.4689 50.8582 69.4217 50.8438C69.3758 50.8308 69.3436 50.8219 69.3258 50.8171C69.2689 50.8048 69.2182 50.7993 69.1737 50.7993C69.0586 50.7993 68.9716 50.8287 68.9134 50.8876C68.8552 50.9465 68.8113 51.0561 68.7826 51.2157L68.6107 52.1637H67.6072ZM70.9108 51.4055C70.9902 51.4055 71.0587 51.3747 71.1163 51.3116C71.1738 51.2493 71.2026 51.1719 71.2026 51.0781C71.2026 51.0007 71.182 50.9383 71.1389 50.8918C71.0971 50.8445 71.0409 50.8219 70.9704 50.8219C70.8943 50.8219 70.8279 50.8541 70.7731 50.9191C70.7176 50.9842 70.6895 51.0657 70.6895 51.1623C70.6895 51.2397 70.7087 51.2993 70.7477 51.3411C70.7868 51.3842 70.8416 51.4055 70.9108 51.4055ZM72.5903 48.9786L71.9978 52.1637H71.0546L71.1224 51.9028C71.0382 52.0165 70.943 52.1007 70.8382 52.1576C70.7334 52.2144 70.6203 52.2432 70.4998 52.2432C70.2738 52.2432 70.0847 52.1555 69.9333 51.9802C69.7813 51.8048 69.7045 51.5856 69.7045 51.3212C69.7045 51.1575 69.7313 50.9924 69.7854 50.826C69.8388 50.6582 69.9107 50.5136 70.0025 50.3924C70.1046 50.2575 70.2217 50.154 70.3553 50.0807C70.4888 50.0075 70.6299 49.9705 70.7779 49.9705C70.9032 49.9705 71.0169 50.0013 71.1176 50.0623C71.2183 50.1232 71.3074 50.2177 71.3834 50.3445V50.2958L71.3902 50.1561L71.4081 49.9992L71.5889 48.9786H72.5903ZM72.3081 53.0802L72.8691 50.039H73.8123L73.7609 50.2958C73.8445 50.1862 73.9363 50.104 74.0349 50.0506C74.1349 49.9972 74.2452 49.9705 74.3671 49.9705C74.5966 49.9705 74.787 50.0575 74.935 50.2314C75.0836 50.4054 75.1582 50.6287 75.1582 50.9013C75.1582 50.9849 75.1514 51.0664 75.1398 51.1466C75.1274 51.2253 75.1076 51.3062 75.0802 51.3884C75.0308 51.5459 74.9589 51.6877 74.8644 51.8144C74.763 51.9507 74.6459 52.0569 74.5123 52.1322C74.4473 52.1678 74.3794 52.1952 74.3096 52.2124C74.2397 52.2302 74.165 52.2391 74.0856 52.2391C73.9623 52.2391 73.8527 52.2103 73.7568 52.1521C73.6609 52.0939 73.5698 51.998 73.4835 51.8651L73.489 51.9267L73.4917 51.9665C73.4917 52.0137 73.4835 52.0795 73.4671 52.1617L73.4582 52.2048L73.2986 53.0802H72.3081ZM73.9664 50.8089C73.8828 50.8089 73.8123 50.839 73.7534 50.9C73.6945 50.9609 73.6643 51.0383 73.6643 51.1315C73.6643 51.2082 73.6849 51.2712 73.7267 51.3205C73.7671 51.3657 73.8239 51.3884 73.8965 51.3884C73.9746 51.3884 74.0411 51.3555 74.0959 51.2897C74.1507 51.224 74.1781 51.1431 74.1781 51.0472C74.1781 50.9746 74.1589 50.9171 74.1212 50.8733C74.0842 50.8308 74.0322 50.8089 73.9664 50.8089ZM75.2802 52.1637L75.6768 50.039H76.5933L76.5213 50.3287C76.5926 50.2123 76.6775 50.1232 76.7741 50.0623C76.8714 50.0013 76.9809 49.9705 77.1029 49.9705C77.1179 49.9705 77.1303 49.9705 77.1385 49.9705C77.1481 49.9705 77.1714 49.9732 77.209 49.978C77.2467 49.9828 77.2926 49.991 77.3481 50.004L77.1871 50.8705C77.1727 50.8664 77.1412 50.8582 77.0947 50.8438C77.0481 50.8308 77.0159 50.8219 76.9988 50.8171C76.9419 50.8048 76.8912 50.7993 76.846 50.7993C76.7309 50.7993 76.6446 50.8287 76.5857 50.8876C76.5275 50.9465 76.4843 51.0561 76.4556 51.2157L76.283 52.1637H75.2802ZM78.3262 50.8301H78.8358V50.7993C78.8358 50.7349 78.818 50.6822 78.7817 50.6417C78.7454 50.6013 78.6968 50.5808 78.6351 50.5808C78.5577 50.5808 78.4947 50.6006 78.4454 50.6397C78.3961 50.6787 78.3564 50.7424 78.3262 50.8301ZM79.6831 51.2246H78.2735C78.2735 51.3301 78.2961 51.4123 78.3427 51.4719C78.3879 51.5315 78.4509 51.561 78.5303 51.561C78.5893 51.561 78.6399 51.5473 78.6824 51.5206C78.7249 51.4932 78.7735 51.4438 78.8283 51.3733L79.5825 51.5329C79.4592 51.7658 79.2989 51.9425 79.103 52.0624C78.9064 52.1829 78.6756 52.2432 78.4112 52.2432C78.1043 52.2432 77.8515 52.1507 77.6529 51.9665C77.4543 51.7808 77.3549 51.5425 77.3549 51.2507C77.3549 51.0794 77.3837 50.9185 77.4412 50.7685C77.4988 50.6178 77.5837 50.4835 77.6954 50.3671C77.818 50.2417 77.9611 50.1438 78.1242 50.0746C78.2885 50.0054 78.4598 49.9705 78.6393 49.9705C78.9475 49.9705 79.2009 50.0609 79.4009 50.2403C79.6003 50.4198 79.6996 50.6472 79.6996 50.9226C79.6996 50.9397 79.6989 50.965 79.6975 50.9993C79.6962 51.0329 79.6955 51.0589 79.6955 51.0746L79.6831 51.2246ZM79.7201 51.8856L80.0962 51.2596C80.1976 51.3589 80.2982 51.4384 80.4003 51.4959C80.4524 51.5233 80.4989 51.5432 80.5421 51.5575C80.5839 51.5706 80.6263 51.5774 80.6674 51.5774C80.7003 51.5774 80.727 51.5692 80.7483 51.5521C80.7702 51.5349 80.7805 51.5137 80.7805 51.489C80.7805 51.4493 80.7318 51.4048 80.6366 51.3541L80.6222 51.3479L80.462 51.2637C80.3359 51.1979 80.2428 51.1205 80.1825 51.0315C80.1215 50.9424 80.0914 50.8383 80.0914 50.7205C80.0914 50.5047 80.1763 50.3253 80.3455 50.1835C80.5147 50.0417 80.7325 49.9705 80.9996 49.9705C81.1408 49.9705 81.2798 49.9917 81.4168 50.0335C81.5524 50.0753 81.6928 50.1397 81.8367 50.2273L81.4976 50.7993C81.4264 50.7322 81.3579 50.6801 81.2921 50.6445C81.2264 50.6075 81.1654 50.5897 81.1092 50.5897C81.0764 50.5897 81.0483 50.5986 81.0257 50.6164C81.0038 50.6335 80.9921 50.6561 80.9921 50.6822C80.9921 50.715 81.0325 50.7493 81.1127 50.7863L81.1668 50.8109L81.2942 50.8705C81.423 50.9281 81.5182 51.0034 81.5805 51.0952C81.6428 51.1863 81.6743 51.3007 81.6743 51.4363C81.6743 51.6795 81.5867 51.8754 81.4113 52.0226C81.236 52.1699 81.0038 52.2432 80.7147 52.2432C80.5626 52.2432 80.403 52.2137 80.2366 52.1541C80.0708 52.0946 79.8982 52.0048 79.7201 51.8856ZM81.7442 51.8856L82.1203 51.2596C82.2216 51.3589 82.323 51.4384 82.4244 51.4959C82.4764 51.5233 82.5237 51.5432 82.5662 51.5575C82.6086 51.5706 82.6504 51.5774 82.6915 51.5774C82.7251 51.5774 82.7511 51.5692 82.7723 51.5521C82.7943 51.5349 82.8045 51.5137 82.8045 51.489C82.8045 51.4493 82.7566 51.4048 82.6607 51.3541L82.6463 51.3479L82.486 51.2637C82.36 51.1979 82.2668 51.1205 82.2066 51.0315C82.1463 50.9424 82.1161 50.8383 82.1161 50.7205C82.1161 50.5047 82.2011 50.3253 82.3696 50.1835C82.5388 50.0417 82.7573 49.9705 83.0244 49.9705C83.1655 49.9705 83.3039 49.9917 83.4409 50.0335C83.5772 50.0753 83.7176 50.1397 83.8608 50.2273L83.5217 50.7993C83.4505 50.7322 83.382 50.6801 83.3162 50.6445C83.2511 50.6075 83.1895 50.5897 83.134 50.5897C83.1004 50.5897 83.0724 50.5986 83.0504 50.6164C83.0278 50.6335 83.0169 50.6561 83.0169 50.6822C83.0169 50.715 83.0566 50.7493 83.1374 50.7863L83.1915 50.8109L83.3183 50.8705C83.447 50.9281 83.5429 51.0034 83.6053 51.0952C83.6676 51.1863 83.6984 51.3007 83.6984 51.4363C83.6984 51.6795 83.6107 51.8754 83.4354 52.0226C83.26 52.1699 83.0278 52.2432 82.7388 52.2432C82.5867 52.2432 82.4271 52.2137 82.2614 52.1541C82.0949 52.0946 81.9223 52.0048 81.7442 51.8856ZM84.48 52.2233C84.332 52.2233 84.2032 52.174 84.095 52.0754C83.9875 51.9767 83.9327 51.8576 83.9327 51.7178C83.9327 51.5452 83.995 51.3986 84.119 51.2788C84.243 51.1589 84.393 51.0993 84.5683 51.0993C84.7238 51.0993 84.8533 51.1493 84.9574 51.2479C85.0601 51.3479 85.1122 51.4705 85.1122 51.6171C85.1122 51.7781 85.0499 51.9199 84.9245 52.0411C84.7992 52.163 84.6505 52.2233 84.48 52.2233ZM86.8815 52.1637C86.8369 52.1767 86.7979 52.1877 86.763 52.1966C86.7287 52.2041 86.6862 52.2131 86.6362 52.2233C86.6034 52.2288 86.5684 52.2329 86.5301 52.237C86.491 52.2411 86.4568 52.2432 86.4266 52.2432C86.1273 52.2432 85.8807 52.1507 85.6862 51.9665C85.4923 51.7808 85.3958 51.5425 85.3958 51.2507C85.3958 51.0753 85.4252 50.9123 85.4848 50.7609C85.5444 50.6095 85.6314 50.4753 85.7451 50.3575C85.8657 50.2342 86.0068 50.1383 86.1677 50.0718C86.3301 50.0047 86.5047 49.9705 86.6917 49.9705C86.7924 49.9705 86.8897 49.9814 86.9835 50.002C87.0335 50.0129 87.0794 50.0246 87.1205 50.039C87.1623 50.052 87.2082 50.0705 87.2575 50.0924L87.1137 50.8835C87.0493 50.8431 86.9897 50.8123 86.9349 50.7911C86.8801 50.7691 86.8273 50.7575 86.776 50.7575C86.665 50.7575 86.5753 50.7931 86.5061 50.8637C86.4376 50.9335 86.402 51.0253 86.402 51.1356C86.402 51.2335 86.4321 51.3103 86.4931 51.3685C86.5534 51.4267 86.6335 51.4562 86.7356 51.4562C86.7753 51.4562 86.8191 51.45 86.8657 51.4384C86.913 51.4253 86.9637 51.4055 87.0171 51.3767L86.8815 52.1637ZM88.5966 50.8219C88.5172 50.8219 88.4494 50.8554 88.3925 50.9226C88.3356 50.989 88.3069 51.0705 88.3069 51.1664C88.3069 51.237 88.3261 51.2938 88.3665 51.337C88.4083 51.3801 88.463 51.4007 88.5281 51.4007C88.6144 51.4007 88.685 51.3685 88.7384 51.3041C88.7925 51.2404 88.8199 51.1568 88.8199 51.0561C88.8199 50.9829 88.8001 50.926 88.7603 50.8842C88.7206 50.8424 88.6658 50.8219 88.5966 50.8219ZM87.3712 51.2548C87.3712 51.0808 87.4014 50.9185 87.4609 50.7664C87.5205 50.6137 87.6068 50.4815 87.7205 50.3671C87.8452 50.2403 87.9884 50.1424 88.15 50.076C88.2281 50.0444 88.311 50.0191 88.3987 50.002C88.4863 49.9842 88.5747 49.9753 88.6637 49.9753C88.9912 49.9753 89.2528 50.0671 89.4501 50.2513C89.6467 50.4356 89.7446 50.6822 89.7446 50.9897C89.7446 51.1322 89.72 51.2712 89.6713 51.4075C89.6234 51.5425 89.5521 51.6664 89.459 51.7767C89.3357 51.9247 89.185 52.0398 89.0069 52.1213C88.8281 52.2028 88.6384 52.2432 88.4357 52.2432C88.1254 52.2432 87.8712 52.1507 87.6712 51.9651C87.4712 51.7788 87.3712 51.5425 87.3712 51.2548ZM89.872 52.1637L90.2693 50.039H91.2105L91.1488 50.3445C91.2714 50.215 91.3913 50.1198 91.507 50.0602C91.6228 50.0006 91.7427 49.9705 91.868 49.9705C91.9968 49.9705 92.1057 50.0054 92.1954 50.0732C92.2852 50.1417 92.3564 50.2486 92.4098 50.3924C92.5085 50.252 92.6235 50.1479 92.7557 50.0773C92.8222 50.0424 92.892 50.015 92.9619 49.9972C93.0325 49.9801 93.1085 49.9705 93.1893 49.9705C93.3791 49.9705 93.5332 50.0294 93.6489 50.1465C93.7654 50.2636 93.8236 50.4198 93.8236 50.6137C93.8236 50.6397 93.8229 50.6671 93.8215 50.6959C93.8202 50.7246 93.8174 50.7643 93.8126 50.8143C93.8078 50.8644 93.7983 50.9281 93.7832 51.0068L93.5674 52.1637H92.5578L92.7674 51.0986L92.7825 51.0007L92.7886 50.8931C92.7886 50.8541 92.7783 50.8219 92.7578 50.7979C92.7366 50.7739 92.7078 50.7623 92.6708 50.7623C92.6003 50.7623 92.5448 50.7938 92.5057 50.8575C92.4667 50.9212 92.4311 51.0418 92.3982 51.2198L92.2269 52.1637H91.2105L91.4221 51.0993L91.4372 50.9966L91.4427 50.9102C91.4427 50.8637 91.4317 50.8274 91.4098 50.8013C91.3872 50.7753 91.3577 50.7623 91.3214 50.7623C91.2495 50.7623 91.194 50.7938 91.1557 50.8575C91.1166 50.9212 91.081 51.0418 91.0474 51.2198L90.8755 52.1637H89.872Z" fill="#1B1918"/>
<path id="Vector_3" fill-rule="evenodd" clip-rule="evenodd" d="M7.67383 10.1301C8.58483 9.98007 9.76846 9.84924 11.2877 9.84924C13.1481 9.84924 14.5125 10.2815 15.3777 11.0616C16.177 11.7535 16.6544 12.8131 16.6544 14.1132C16.6544 15.4345 16.2661 16.4729 15.529 17.2311C14.5338 18.2908 12.9111 18.834 11.0713 18.834C10.5069 18.834 9.98628 18.8093 9.55954 18.7052V24.5445H7.67383V10.1301ZM9.55954 17.164C9.96436 17.275 10.489 17.3174 11.1137 17.3174C13.3878 17.3174 14.7735 16.2105 14.7735 14.2002C14.7735 12.2754 13.4077 11.3438 11.3295 11.3438C10.5069 11.3438 9.88216 11.4075 9.55954 11.4952V17.164Z" fill="#003672"/>
<path id="Vector_4" fill-rule="evenodd" clip-rule="evenodd" d="M19.0156 9.17932H20.9185V15.7153H20.9644C21.2644 15.1741 21.7418 14.6967 22.3268 14.3721C22.8891 14.0481 23.5611 13.8323 24.2748 13.8323C25.6824 13.8323 27.9298 14.6967 27.9298 18.3127V24.5445H26.0276V18.5271C26.0276 16.8393 25.3988 15.4139 23.6035 15.4139C22.3692 15.4139 21.3945 16.2769 21.0486 17.3174C20.9397 17.577 20.9185 17.8599 20.9185 18.2202V24.5445H19.0156V9.17932Z" fill="#003672"/>
<path id="Vector_5" fill-rule="evenodd" clip-rule="evenodd" d="M38.392 22.0341C38.392 22.9444 38.4304 23.8328 38.5578 24.5445H36.8262L36.6782 23.2245H36.609C36.0261 24.0479 34.9041 24.7835 33.4089 24.7835C31.2896 24.7835 30.2046 23.2924 30.2046 21.7758C30.2046 19.2476 32.454 17.8599 36.5022 17.8832V17.664C36.5022 16.7975 36.2652 15.2385 34.1199 15.2385C33.1493 15.2385 32.1273 15.542 31.3944 16.0207L30.9628 14.7611C31.8314 14.2001 33.0849 13.8323 34.4021 13.8323C37.6084 13.8323 38.392 16.0207 38.392 18.1188V22.0341ZM36.5453 19.201C34.4685 19.1593 32.1095 19.5278 32.1095 21.558C32.1095 22.7923 32.9321 23.3759 33.9055 23.3759C35.2685 23.3759 36.135 22.5135 36.4378 21.6231C36.5022 21.4292 36.5453 21.2107 36.5453 21.0196V19.201Z" fill="#003672"/>
<path id="Vector_6" fill-rule="evenodd" clip-rule="evenodd" d="M41.4579 17.3379C41.4579 16.1057 41.4381 15.0467 41.3723 14.0706H43.0382L43.1039 16.129H43.1916C43.667 14.7186 44.8136 13.8323 46.0917 13.8323C46.3061 13.8323 46.4582 13.8542 46.6342 13.8967V15.6885C46.4397 15.6502 46.2397 15.6296 45.9821 15.6296C44.643 15.6296 43.6902 16.6475 43.4286 18.0709C43.3854 18.3325 43.345 18.6401 43.345 18.962V24.5445H41.4579V17.3379Z" fill="#003672"/>
<path id="Vector_7" fill-rule="evenodd" clip-rule="evenodd" d="M48.626 16.9064C48.626 15.8221 48.6041 14.9371 48.5383 14.0706H50.2049L50.2918 15.7625H50.3542C50.9412 14.7611 51.9118 13.8323 53.6454 13.8323C55.0729 13.8323 56.1538 14.6967 56.612 15.9317H56.6524C56.9758 15.3461 57.3867 14.8933 57.8203 14.5686C58.4512 14.0932 59.1389 13.8323 60.1355 13.8323C61.5226 13.8323 63.5761 14.7419 63.5761 18.3791V24.5445H61.7157V18.6161C61.7157 16.6043 60.9794 15.3899 59.443 15.3899C58.3614 15.3899 57.5176 16.192 57.1929 17.1235C57.1052 17.3818 57.0381 17.7291 57.0381 18.0709V24.5445H55.1811V18.2702C55.1811 16.6043 54.4448 15.3899 52.9927 15.3899C51.8056 15.3899 50.9412 16.3447 50.6364 17.2948C50.5288 17.577 50.485 17.9017 50.485 18.2202V24.5445H48.626V16.9064Z" fill="#003672"/>
<path id="Vector_8" fill-rule="evenodd" clip-rule="evenodd" d="M74.0295 22.0341C74.0295 22.9444 74.0741 23.8328 74.2056 24.5445H72.474L72.3247 23.2245H72.2575C71.6746 24.0479 70.5506 24.7835 69.0532 24.7835C66.9319 24.7835 65.8503 23.2924 65.8503 21.7758C65.8503 19.2476 68.1018 17.8599 72.1479 17.8832V17.664C72.1479 16.7975 71.9137 15.2385 69.7663 15.2385C68.7923 15.2385 67.7772 15.542 67.0408 16.0207L66.6059 14.7611C67.4744 14.2001 68.7286 13.8323 70.0485 13.8323C73.2542 13.8323 74.0295 16.0207 74.0295 18.1188V22.0341ZM72.1925 19.201C70.117 19.1593 67.7525 19.5278 67.7525 21.558C67.7525 22.7923 68.5758 23.3759 69.5498 23.3759C70.917 23.3759 71.7835 22.5135 72.0849 21.6231C72.1479 21.4292 72.1925 21.2107 72.1925 21.0196V19.201Z" fill="#003672"/>
<path id="Vector_9" fill-rule="evenodd" clip-rule="evenodd" d="M84.5697 24.1575C84.0744 24.4158 82.9703 24.7836 81.5675 24.7836C78.4056 24.7836 76.3459 22.6157 76.3459 19.4155C76.3459 16.192 78.5536 13.8542 81.9743 13.8542C83.1004 13.8542 84.0957 14.1358 84.619 14.3967L84.184 15.8653C83.7313 15.6071 83.0162 15.368 81.9743 15.368C79.5769 15.368 78.2755 17.1435 78.2755 19.3285C78.2755 21.754 79.8311 23.2493 81.9113 23.2493C82.9963 23.2493 83.7066 22.9664 84.2491 22.7287L84.5697 24.1575Z" fill="#003672"/>
<path id="Vector_10" fill-rule="evenodd" clip-rule="evenodd" d="M87.7323 19.6538C87.7741 22.23 89.4235 23.2924 91.3243 23.2924C92.6908 23.2924 93.51 23.0526 94.2237 22.7485L94.5553 24.1129C93.8799 24.4157 92.7319 24.7835 91.0654 24.7835C87.8412 24.7835 85.9158 22.6451 85.9158 19.4833C85.9158 16.3187 87.7741 13.8323 90.829 13.8323C94.2484 13.8323 95.1573 16.8393 95.1573 18.7675C95.1573 19.1593 95.1135 19.4572 95.0902 19.6538H87.7323ZM93.3162 18.2907C93.3415 17.079 92.8182 15.1954 90.6756 15.1954C88.7502 15.1954 87.9083 16.9708 87.757 18.2907H93.3162Z" fill="#003672"/>
<path id="Vector_11" fill-rule="evenodd" clip-rule="evenodd" d="M97.5143 17.3379C97.5143 16.1057 97.493 15.0467 97.4314 14.0706H99.0952L99.1616 16.129H99.2479C99.724 14.7186 100.871 13.8323 102.148 13.8323C102.365 13.8323 102.518 13.8542 102.69 13.8967V15.6885C102.495 15.6502 102.303 15.6296 102.038 15.6296C100.698 15.6296 99.7466 16.6475 99.4877 18.0709C99.4418 18.3325 99.4014 18.6401 99.4014 18.962V24.5445H97.5143V17.3379Z" fill="#003672"/>
<path id="Vector_12" fill-rule="evenodd" clip-rule="evenodd" d="M104.681 24.5445H106.585V14.0707H104.681V24.5445Z" fill="#003672"/>
<path id="Vector_13" fill-rule="evenodd" clip-rule="evenodd" d="M109.483 22.5992C110.049 22.9663 111.044 23.3547 111.999 23.3547C113.379 23.3547 114.03 22.6629 114.03 21.7984C114.03 20.8895 113.489 20.3888 112.085 19.873C110.2 19.201 109.312 18.1606 109.312 16.9064C109.312 15.2166 110.676 13.8323 112.924 13.8323C113.986 13.8323 114.918 14.1357 115.505 14.4796L115.029 15.8653C114.615 15.607 113.859 15.2625 112.883 15.2625C111.757 15.2625 111.129 15.9111 111.129 16.6872C111.129 17.5571 111.757 17.9434 113.121 18.4654C114.939 19.1593 115.869 20.0655 115.869 21.6231C115.869 23.4629 114.44 24.7835 111.953 24.7835C110.806 24.7835 109.748 24.4815 109.009 24.0479L109.483 22.5992Z" fill="#003672"/>
<path id="Vector_14" fill-rule="evenodd" clip-rule="evenodd" d="M104.588 10.1896H106.538V0.150757H104.588V10.1896Z" fill="#003672"/>
<path id="Vector_15" fill-rule="evenodd" clip-rule="evenodd" d="M18.2546 37.7137H24.3892V31.5778H18.2546V37.7137Z" fill="#1EB8B9"/>
<path id="Vector_16" fill-rule="evenodd" clip-rule="evenodd" d="M71.7827 37.7137H77.9173V31.5778H71.7827V37.7137Z" fill="#F49019"/>
<path id="Vector_17" fill-rule="evenodd" clip-rule="evenodd" d="M80.7043 37.7137H86.8382V31.5778H80.7043V37.7137Z" fill="#00AEE5"/>
<path id="Vector_18" fill-rule="evenodd" clip-rule="evenodd" d="M89.6255 37.7137H95.7601V31.5778H89.6255V37.7137Z" fill="#917043"/>
<path id="Vector_19" fill-rule="evenodd" clip-rule="evenodd" d="M98.5464 37.7137H104.682V31.5778H98.5464V37.7137Z" fill="#00857B"/>
<path id="Vector_20" fill-rule="evenodd" clip-rule="evenodd" d="M116.389 37.7137H122.524V31.5778H116.389V37.7137Z" fill="#EE7303"/>
<path id="Vector_21" fill-rule="evenodd" clip-rule="evenodd" d="M107.469 37.7137H113.602V31.5778H107.469V37.7137Z" fill="#FACAAA"/>
<path id="Vector_22" fill-rule="evenodd" clip-rule="evenodd" d="M27.177 37.7137H33.3102V31.5778H27.177V37.7137Z" fill="#8CC15A"/>
<path id="Vector_23" fill-rule="evenodd" clip-rule="evenodd" d="M53.9399 37.7137H60.0752V31.5778H53.9399V37.7137Z" fill="#E41D83"/>
<path id="Vector_24" fill-rule="evenodd" clip-rule="evenodd" d="M45.019 37.7137H51.1536V31.5778H45.019V37.7137Z" fill="#A17266"/>
<path id="Vector_25" fill-rule="evenodd" clip-rule="evenodd" d="M62.8611 37.7137H68.9963V31.5778H62.8611V37.7137Z" fill="#8661A3"/>
<path id="Vector_26" fill-rule="evenodd" clip-rule="evenodd" d="M0.412598 37.7137H6.54648V31.5778H0.412598V37.7137Z" fill="#0090D2"/>
<path id="Vector_27" fill-rule="evenodd" clip-rule="evenodd" d="M9.3335 37.7137H15.4681V31.5778H9.3335V37.7137Z" fill="#B80046"/>
<path id="Vector_28" fill-rule="evenodd" clip-rule="evenodd" d="M36.0979 37.7137H42.2318V31.5778H36.0979V37.7137Z" fill="#F3997F"/>
</g>
</g>
<defs>
<clipPath id="clip0_832_985">
<rect width="122.176" height="53" fill="white" transform="translate(0.411865 0.128418)"/>
</clipPath>
</defs>
</svg>
