<svg width="143" height="44" viewBox="0 0 143 44" fill="none" xmlns="http://www.w3.org/2000/svg">
<g clip-path="url(#clip0_837_15823)">
<path fill-rule="evenodd" clip-rule="evenodd" d="M9.67599 37.8625C6.73629 35.7434 5.1802 34.1881 3.70997 31.9398C1.59163 28.6544 0.424561 24.6753 0.424561 20.7417C0.424561 9.3727 9.58937 0.163818 20.9599 0.163818C32.2864 0.163818 41.4953 9.3727 41.4953 20.6992C41.4953 25.369 39.8951 30.038 37.0853 33.4966C35.9175 34.9661 34.9237 35.8293 32.2423 37.8625V25.8438H34.274V34.0581C35.7876 32.2863 36.5215 31.2043 37.2578 29.9088C38.7713 27.2275 39.5919 23.8987 39.5919 20.6992C39.5919 10.324 31.2485 1.89238 20.9591 1.89238C10.6258 1.89238 2.3256 10.324 2.3256 20.8291C2.3256 25.6265 4.01238 29.8655 7.60019 34.0574V25.8431H9.67447V37.8625H9.67599ZM13.7394 39.9375C13.3504 39.8517 12.4432 39.4193 11.7085 39.0296V25.8438H13.7394V39.9375ZM17.847 41.0187C17.1122 40.8881 17.0697 40.8881 16.8098 40.8022C16.5933 40.7589 16.5067 40.7589 15.8145 40.5857V12.4856H17.8462L17.847 41.0187ZM21.9545 41.1912C21.6513 41.2345 21.5647 41.2345 21.1324 41.2345C20.4843 41.2345 20.2677 41.2345 19.922 41.1912V12.4856H21.9545V41.1912ZM26.062 40.5423C25.4131 40.7589 24.8516 40.8881 24.0295 41.0621V12.4856H26.062V40.5423ZM26.1053 10.9721L20.9607 6.9945L15.8152 10.9721L14.6915 9.50111L20.9607 4.61554L27.2291 9.50111L26.1053 10.9721ZM30.2121 39.0288C29.564 39.3312 29.1742 39.5052 28.1371 39.9801V25.8438H30.2121V39.0288ZM52.8665 8.80969V3.31855C53.4714 3.10276 53.7738 3.05945 54.2061 3.05945C55.7637 3.05945 56.6709 4.09659 56.6709 5.82668C56.6709 7.85917 55.8063 8.80969 53.947 8.80969H52.8665ZM51.872 2.23886H49.2347V3.14683L50.7049 3.40592V15.9868L49.2347 16.2467V17.1114H51.742C52.1751 17.1114 52.7366 17.1114 53.4714 17.1547H54.8124C56.2386 17.1547 57.0174 17.068 57.6655 16.8082C59.0917 16.2467 60.0004 14.8631 60.0004 13.2196C60.0004 11.1013 58.79 9.67435 56.5417 9.1987C58.3144 8.33404 59.1357 7.25284 59.1357 5.74082C59.1357 3.53585 57.493 2.10893 55.029 2.10893C54.8557 2.10893 54.3368 2.15224 53.6879 2.19555L51.872 2.23886ZM52.8665 9.84834H53.8178C56.3252 9.84834 57.4923 10.8429 57.4923 12.9613C57.4923 14.9923 56.2386 16.2467 54.2061 16.2467C53.602 16.2467 53.2989 16.1601 52.8665 15.9002V9.84834ZM66.009 6.30232C63.4142 6.30232 61.6423 8.63721 61.6423 12.01C61.6423 15.1662 63.3284 17.3264 65.7924 17.3264C68.3864 17.3264 70.159 15.0356 70.159 11.6202C70.159 8.42142 68.473 6.30232 66.009 6.30232ZM65.9223 7.34021C67.1327 7.34021 67.8249 8.76713 67.8249 11.3611C67.8249 14.6032 67.1327 16.2467 65.8365 16.2467C64.6254 16.2467 63.9339 14.6906 63.9339 11.9234C63.9339 9.02623 64.6687 7.34021 65.9223 7.34021ZM79.4105 11.6628C79.3672 8.07495 78.2009 6.34562 75.7793 6.34562C73.2727 6.34562 71.7584 8.50728 71.7584 12.0959C71.7584 15.4679 73.2279 17.3256 75.8234 17.3256C77.5094 17.3256 78.2867 16.7641 79.3672 14.819L78.4159 14.43C77.7685 15.4246 77.2063 15.8136 76.4275 15.8136C74.8721 15.8136 74.1359 14.6032 73.9193 11.6628H79.4105ZM73.9193 10.6256C74.1792 8.37812 74.6981 7.38352 75.6927 7.38352C76.6873 7.38352 77.1189 8.29074 77.2063 10.6256H73.9193ZM54.2494 39.2028V38.2948L52.9957 38.035V25.4548L54.2935 25.195V24.287H49.3213V25.2383L50.7049 25.4548V38.079L49.3213 38.3374V39.2028H54.2494ZM65.49 39.2028V38.2948L64.3663 38.035V31.335C64.3663 29.5616 63.4583 28.5244 61.8156 28.5244C60.8651 28.5244 60.2587 28.7843 58.9625 29.7781V28.4811H58.3569L55.6763 29.1726V30.038L56.93 30.2105V38.0798L55.6763 38.3381V39.2036H60.1296V38.2956L59.0058 38.0357V30.99C59.8272 30.2986 60.3894 30.0387 61.0383 30.0387C61.8596 30.0387 62.2479 30.601 62.2479 31.8121V38.1239L61.1241 38.3389V39.2043H65.49V39.2028ZM75.6069 29.9514V28.6977L73.835 28.741H73.4444C73.272 28.7843 73.1003 28.7843 73.0554 28.7843C72.8389 28.7843 72.5357 28.741 72.1041 28.6118C71.3253 28.4378 71.1536 28.3953 70.7205 28.3953C68.6888 28.3953 67.132 29.9521 67.132 31.9839C67.132 33.3242 67.6076 34.1448 68.9046 34.9669C67.521 35.8308 66.9587 36.5237 66.9587 37.301C66.9587 37.9066 67.3044 38.2956 68.1691 38.6413C66.9147 39.4634 66.4838 40.0242 66.4838 40.8896C66.4838 42.2299 67.9966 43.0945 70.33 43.0945C73.4429 43.0945 75.4747 41.6236 75.4747 39.3327C75.4747 37.7333 74.5249 36.9553 72.4916 36.8694L69.8977 36.7387C69.2495 36.6954 68.9904 36.5663 68.9904 36.3072C68.9904 36.0481 69.2921 35.7016 69.8118 35.3559C70.2008 35.4866 70.5465 35.5299 70.9789 35.5299C73.0539 35.5299 74.6108 34.0589 74.6108 32.0705C74.6108 31.2484 74.4368 30.7302 73.8335 29.9529H75.6069V29.9514ZM70.8072 29.3032C71.8451 29.3032 72.364 30.2097 72.364 32.1123C72.364 33.7117 71.8891 34.5345 70.8938 34.5345C69.8559 34.5345 69.4235 33.7124 69.4235 31.8972C69.4243 30.1238 69.8566 29.3032 70.8072 29.3032ZM70.159 38.8571C73.4878 39.0721 73.9642 39.2461 73.9642 40.1541C73.9642 41.1912 72.6239 41.926 70.8505 41.926C69.4243 41.926 68.5596 41.3652 68.5596 40.4139C68.5596 39.7643 68.7754 39.332 69.3369 38.8145L70.159 38.8571ZM78.9356 32.7178C79.1954 30.4262 79.7577 29.475 80.7523 29.475C81.7469 29.475 82.1784 30.4696 82.2218 32.7178H78.9356ZM90.392 17.1106V16.2026L89.2682 15.9861V9.4578C89.2682 7.51193 88.4043 6.5181 86.7175 6.5181C85.8096 6.5181 85.1181 6.81974 83.9085 7.77179V1.24503H83.303L80.6231 1.80653V2.54126L81.8327 2.80036V15.9861L80.5357 16.2459V17.1106H84.9464V16.2026L83.9093 15.9861V9.02547C84.7732 8.29074 85.2496 8.07495 85.8977 8.07495C86.8042 8.07495 87.1514 8.63645 87.1514 10.1925V16.0294L86.1127 16.2459V17.1106H90.392ZM95.1051 6.43224H94.4562L91.8622 7.12367V7.81585L93.1159 8.0324V15.9868L91.8622 16.2467V17.1114H96.6596V16.2034L95.1476 15.9868V10.324C95.1476 9.71766 95.7532 8.89706 96.4879 8.50728L97.6124 9.11285C98.1747 8.68052 98.433 8.29073 98.433 7.81509C98.433 7.03781 97.9582 6.56141 97.1809 6.56141C96.4021 6.56141 95.9697 6.95043 95.1051 8.42066V6.43224ZM101.547 1.24503C101.365 1.24248 101.184 1.27647 101.015 1.34499C100.846 1.41352 100.693 1.51519 100.564 1.64401C100.435 1.77283 100.333 1.92619 100.264 2.09504C100.195 2.26389 100.161 2.44481 100.163 2.62712C100.163 3.40517 100.769 4.01073 101.547 4.01073C102.325 4.01073 102.93 3.40517 102.93 2.62712C102.933 2.44494 102.898 2.26414 102.83 2.09539C102.761 1.92664 102.659 1.77336 102.53 1.64456C102.401 1.51576 102.248 1.41405 102.079 1.34544C101.91 1.27682 101.73 1.24268 101.547 1.24503ZM103.967 17.1106V16.2026L102.756 15.9861V6.51886H102.238L99.5135 7.21105V7.94578L100.681 8.20488V15.9868L99.5135 16.2467V17.1114L103.967 17.1106ZM84.4708 33.7117C84.3834 32.2855 84.3401 31.5941 84.1669 31.0318C83.6487 29.3458 82.5257 28.4378 80.7948 28.4378C78.2882 28.4378 76.7732 30.5554 76.7732 34.144C76.7732 37.4742 78.2442 39.4193 80.8381 39.4193C82.5257 39.4193 83.4321 38.7697 84.4267 36.9112L83.477 36.5222C82.8273 37.5168 82.2643 37.905 81.4437 37.905C79.8869 37.905 79.1521 36.6939 78.9356 33.7109L84.4708 33.7117ZM90.2203 39.2028V38.2948L89.054 38.035V23.2947H88.4902L85.767 23.8987V24.6335L86.9782 24.7642V38.0798L85.726 38.3381V39.2036L90.2203 39.2028ZM101.504 39.2028V38.2948L100.336 38.035V31.3775C100.336 29.6057 99.4284 28.6111 97.8282 28.6111C96.8336 28.6111 96.1422 28.912 94.9759 29.8648V23.2939H94.4137L91.689 23.898V24.6327L92.9001 24.8492V38.079L91.6464 38.3374V39.2028H96.0138V38.2948L94.9767 38.035V31.1177C95.8406 30.3829 96.358 30.1231 96.9651 30.1231C97.8715 30.1231 98.2172 30.6853 98.2172 32.2422V38.1216L97.1816 38.3366V39.202L101.504 39.2028ZM110.582 33.7117C110.496 32.2855 110.452 31.5941 110.279 31.0318C109.761 29.3458 108.638 28.4378 106.909 28.4378C104.399 28.4378 102.887 30.5554 102.887 34.144C102.887 37.4742 104.357 39.4193 106.95 39.4193C108.638 39.4193 109.544 38.7697 110.539 36.9112L109.588 36.5222C108.939 37.5168 108.378 37.905 107.556 37.905C106.001 37.905 105.264 36.6939 105.048 33.7109L110.582 33.7117ZM105.048 32.7178C105.308 30.4262 105.87 29.475 106.865 29.475C107.859 29.475 108.291 30.4696 108.336 32.7178H105.048ZM120.569 7.21029C121.606 7.21029 122.126 8.11826 122.126 10.0208C122.126 11.6202 121.65 12.4416 120.655 12.4416C119.62 12.4416 119.186 11.6202 119.186 9.80504C119.186 8.03164 119.62 7.21029 120.569 7.21029ZM115.295 17.1106V16.2026L114.172 15.9435V9.24201C114.172 7.46938 113.264 6.43224 111.621 6.43224C110.67 6.43224 110.064 6.69134 108.767 7.68593V6.38893H108.162L105.482 7.08036V7.94502L106.735 8.11826V15.9861L105.482 16.2459V17.1106H109.933V16.2026L108.811 15.9435V8.89631C109.632 8.20412 110.193 7.94502 110.841 7.94502C111.664 7.94502 112.053 8.50652 112.053 9.71689V16.0294L110.929 16.2459V17.1106H115.295ZM125.368 7.85916V6.60472L123.595 6.64803H123.206C123.033 6.69134 122.86 6.69134 122.817 6.69134C122.6 6.69134 122.299 6.64803 121.866 6.5181C121.088 6.34486 120.914 6.30156 120.483 6.30156C118.451 6.30156 116.894 7.85841 116.894 9.89013C116.894 11.2304 117.37 12.0518 118.666 12.8731C117.283 13.7378 116.72 14.4292 116.72 15.1655C116.72 15.7703 117.067 16.2026 117.931 16.5476C116.72 17.3256 116.245 17.9312 116.245 18.7959C116.245 20.1362 117.757 21.0008 120.093 21.0008C123.205 21.0008 125.238 19.5306 125.238 17.2398C125.238 15.6404 124.286 14.8623 122.255 14.7757L119.659 14.6465C119.01 14.6025 118.753 14.4733 118.753 14.1709C118.753 13.9551 119.055 13.6086 119.573 13.2637C119.962 13.3929 120.309 13.4362 120.741 13.4362C122.815 13.4362 124.372 11.9659 124.372 9.97751C124.372 9.15616 124.2 8.63721 123.593 7.85993H125.368V7.85916ZM119.1 16.7216C123.38 16.9807 123.726 17.0673 123.726 18.0619C123.726 19.0565 122.385 19.8345 120.612 19.8345C119.186 19.8345 118.322 19.2723 118.322 18.321C118.323 17.6729 118.538 17.2405 119.1 16.7216ZM134.231 11.6628C134.187 8.07495 133.02 6.34562 130.6 6.34562C128.091 6.34562 126.579 8.50728 126.579 12.0959C126.579 15.4679 128.049 17.3256 130.643 17.3256C132.329 17.3256 133.108 16.7641 134.188 14.819L133.237 14.43C132.588 15.4246 132.027 15.8136 131.248 15.8136C129.692 15.8136 128.957 14.6032 128.74 11.6628H134.231ZM128.74 10.6256C129 8.37812 129.519 7.38352 130.514 7.38352C131.508 7.38352 131.94 8.29074 132.027 10.6256H128.74ZM139.247 6.43224H138.598L136.004 7.12367V7.81585L137.256 8.0324V15.9868L136.004 16.2467V17.1114H140.803V16.2034L139.288 15.9868V10.324C139.288 9.71766 139.895 8.89706 140.63 8.50728L141.754 9.11285C142.315 8.68052 142.575 8.29073 142.575 7.81509C142.575 7.03781 142.098 6.56141 141.321 6.56141C140.542 6.56141 140.11 6.95043 139.247 8.42066V6.43224ZM114.387 23.2939C113.566 23.2939 112.917 23.9413 112.917 24.7201C112.917 25.4974 113.523 26.1029 114.3 26.1029C114.678 26.0996 115.039 25.948 115.305 25.681C115.572 25.4139 115.723 25.0527 115.726 24.6753C115.727 23.9413 115.123 23.2939 114.387 23.2939ZM116.722 39.2028V38.2948L115.512 38.035V28.6118H114.992L112.269 29.3032V29.9932L113.437 30.253V38.0798L112.269 38.3381V39.2036H133.669V38.2956L132.46 38.0357V31.6815C132.46 29.519 131.681 28.6126 129.822 28.6126C128.698 28.6126 127.963 29.0016 126.838 30.0387C126.234 29.0875 125.497 28.6559 124.417 28.6559C123.38 28.6559 122.558 29.0016 121.477 29.9096V28.4819H120.915L118.192 29.1733V29.9096L119.446 30.1246V38.0806L118.192 38.3389V39.2043H122.601V38.2964L121.606 38.0365V31.0766C122.343 30.3419 122.86 30.0821 123.552 30.0821C124.504 30.0821 124.937 30.6876 124.937 32.0279V38.0813L123.726 38.3397V39.2051H128.091V38.2971L127.011 38.0373V31.12C127.876 30.3427 128.353 30.0828 129.043 30.0828C129.951 30.0828 130.34 30.6451 130.34 32.0712V38.0813L129.173 38.3397V39.2051H133.668H116.722V39.2028Z" fill="#36367C"/>
</g>
<defs>
<clipPath id="clip0_837_15823">
<rect width="142.24" height="43" fill="white" transform="translate(0.380249 0.128418)"/>
</clipPath>
</defs>
</svg>
