<svg width="147" height="20" viewBox="0 0 147 20" fill="none" xmlns="http://www.w3.org/2000/svg">
<g clip-path="url(#clip0_837_15388)">
<path d="M0.122314 4.2228H5.33213V18.62H8.9521V4.2228H14.1619V0.583374H0.122314V4.2228Z" fill="black"/>
<path d="M49.3098 11.689L41.5807 0.583374H38.2297V18.62H41.8008V7.13971L49.799 18.62H52.8808V0.583374H49.3098V11.689Z" fill="black"/>
<path d="M64.9883 7.40732L61.0503 0.583374H56.7944L63.1294 11.1003V18.62H66.7738V11.02L73.1087 0.583374H68.9751L64.9883 7.40732Z" fill="black"/>
<path d="M85.5094 7.08619L81.1557 0.583374H77.2422V18.62H80.8132V6.92562L85.5094 13.4552L90.1567 6.84535V18.62H93.7522V0.583374H89.8387L85.5094 7.08619Z" fill="black"/>
<path d="M142.744 0.583374L138.733 7.40732L134.795 0.583374H130.563L136.898 11.1003V18.62H140.543V11.02L146.878 0.583374H142.744Z" fill="black"/>
<path d="M122.639 0.583374H119.019V18.62H130.881V15.0073H122.639V0.583374Z" fill="black"/>
<path d="M106.398 0.262207C101.677 0.262207 97.8613 4.43685 97.8613 9.60164C97.8613 14.7664 101.677 18.9411 106.398 18.9411C111.118 18.9411 114.934 14.7664 114.934 9.60164C114.934 4.43685 111.118 0.262207 106.398 0.262207ZM106.398 14.8735C103.732 14.8735 101.579 12.5185 101.579 9.60164C101.579 6.68474 103.732 4.32982 106.398 4.32982C109.064 4.32982 111.216 6.68474 111.216 9.60164C111.216 12.4918 109.064 14.8735 106.398 14.8735Z" fill="black"/>
<path d="M25.3642 0.262207C20.6435 0.262207 16.8279 4.43685 16.8279 9.60164C16.8279 14.7664 20.6435 18.9411 25.3642 18.9411C30.0848 18.9411 33.9004 14.7664 33.9004 9.60164C33.9004 4.43685 30.0603 0.262207 25.3642 0.262207ZM25.3642 14.8735C22.6981 14.8735 20.5457 12.5185 20.5457 9.60164C20.5457 6.68474 22.6981 4.32982 25.3642 4.32982C28.0302 4.32982 30.1826 6.68474 30.1826 9.60164C30.1826 12.4918 28.0057 14.8735 25.3642 14.8735Z" fill="black"/>
</g>
<defs>
<clipPath id="clip0_837_15388">
<rect width="147" height="19" fill="white" transform="translate(0 0.128418)"/>
</clipPath>
</defs>
</svg>
