<svg width="54" height="54" viewBox="0 0 54 54" fill="none" xmlns="http://www.w3.org/2000/svg">
<g id="185055 1" clip-path="url(#clip0_837_14764)">
<g id="surface1">
<g id="Clip path group">
<mask id="mask0_837_14764" style="mask-type:luminance" maskUnits="userSpaceOnUse" x="0" y="0" width="54" height="54">
<g id="clip1">
<path id="Vector" d="M0.328369 0.128418H53.3379V53.1284H0.328369V0.128418Z" fill="white"/>
</g>
</mask>
<g mask="url(#mask0_837_14764)">
<g id="Group">
<path id="Vector_2" fill-rule="evenodd" clip-rule="evenodd" d="M0.340393 0.128418H53.3404C53.3404 0.320795 53.3404 0.513173 53.3404 0.704987C35.6744 0.707053 18.0089 0.703672 0.343211 0.707053C0.339453 0.514112 0.339829 0.321359 0.340393 0.128418ZM3.16838 5.19993C4.02205 5.20726 4.87611 5.19711 5.73034 5.20482C5.54323 8.57668 5.5312 11.9544 5.59658 15.3291C5.61593 15.8096 5.61443 16.2906 5.64712 16.77C7.17806 16.7632 8.70975 16.7956 10.2386 16.7022C10.9428 16.6661 11.645 16.6026 12.3458 16.5301C12.2702 17.2669 12.1942 18.0037 12.1192 18.7409C9.13396 18.7404 6.14873 18.7415 3.16349 18.7404C3.32037 16.0347 3.34723 13.3245 3.32995 10.6149C3.31548 8.80945 3.26457 7.00347 3.16838 5.19993ZM13.5571 5.19956C14.4108 5.20763 15.2651 5.19655 16.1187 5.20519C15.9902 7.43876 15.9575 9.67609 15.947 11.9125C15.9547 14.1893 15.9908 16.4666 16.1172 18.7404C15.2622 18.7409 14.4071 18.7409 13.5524 18.7404C13.6576 16.9769 13.6995 15.2103 13.7178 13.4444C13.7399 10.6953 13.7067 7.94526 13.5571 5.19956ZM18.1757 5.20087C20.162 5.20425 22.1484 5.20144 24.1345 5.20237C24.9983 5.18603 25.889 5.34666 26.6354 5.7998C27.267 6.17535 27.7634 6.77408 28.0052 7.46863C28.2669 8.21691 28.286 9.0441 28.0899 9.80985C27.8874 10.5874 27.3843 11.282 26.7004 11.7056C27.2824 12.026 27.8038 12.48 28.126 13.0682C28.5819 13.8766 28.6843 14.8496 28.528 15.7553C28.3843 16.5964 27.9274 17.3881 27.24 17.9008C26.4538 18.501 25.4451 18.7308 24.4702 18.7409C22.371 18.7409 20.2718 18.7404 18.1723 18.7409C18.37 15.4267 18.3613 12.1039 18.3157 8.78541C18.2858 7.59018 18.2445 6.39459 18.1757 5.20087ZM20.54 10.8414C21.5457 10.842 22.5514 10.8409 23.557 10.8414C23.9273 10.8429 24.3068 10.8371 24.6613 10.7154C24.9959 10.6059 25.3042 10.4024 25.5163 10.1181C25.8242 9.71498 25.918 9.18124 25.864 8.68546C25.8165 8.21654 25.5958 7.75419 25.2157 7.46619C24.855 7.18533 24.3928 7.06453 23.9418 7.05457C22.8326 7.0525 21.7242 7.05645 20.6156 7.05213C20.5746 8.31498 20.5472 9.57802 20.54 10.8414ZM20.54 12.7297C20.5391 14.1171 20.5746 15.5042 20.6127 16.8912C21.5457 16.8865 22.4786 16.8908 23.4118 16.8893C23.8437 16.8865 24.2843 16.9134 24.706 16.8003C25.1595 16.6855 25.5866 16.4281 25.8554 16.0394C26.2103 15.5306 26.2873 14.866 26.1579 14.2687C26.0647 13.8248 25.8069 13.4164 25.4385 13.15C25.0344 12.858 24.5304 12.7286 24.0365 12.7286C22.8711 12.7306 21.7054 12.7282 20.54 12.7297ZM30.0685 5.2005C31.4901 5.20482 32.9117 5.20087 34.3339 5.20237C34.9603 5.21289 35.5921 5.16255 36.212 5.2779C37.2192 5.44473 38.1845 5.92999 38.8702 6.6933C39.4868 7.36718 39.8625 8.24585 39.9643 9.151C40.0558 9.98682 39.964 10.8529 39.6277 11.6288C39.2839 12.4468 38.6673 13.1398 37.9122 13.6025C38.7148 15.3157 39.5219 17.0268 40.3232 18.7409C39.4075 18.7385 38.4918 18.7458 37.5765 18.737C37.0108 17.2226 36.368 15.7365 35.6484 14.2888C34.5928 14.3249 33.5342 14.2937 32.4776 14.3048C32.5136 15.7837 32.5424 17.2639 32.6363 18.7409C31.7793 18.7409 30.9216 18.7409 30.0646 18.7409C30.1704 17.0274 30.2085 15.3105 30.2316 13.5943C30.2267 11.8961 30.247 10.1974 30.1978 8.50022C30.1768 7.39987 30.1266 6.29934 30.0685 5.2005ZM32.5396 7.16278C32.4862 8.91334 32.4582 10.6639 32.4669 12.4156C33.2157 12.418 33.9646 12.415 34.7134 12.4171C35.4262 12.431 36.1756 12.2747 36.7392 11.8148C37.3293 11.347 37.6212 10.5822 37.6169 9.84198C37.6381 9.13691 37.4125 8.40009 36.8949 7.90336C36.3727 7.39161 35.6272 7.17763 34.9101 7.16466C34.1199 7.1594 33.3298 7.16316 32.5396 7.16278ZM41.5073 5.20237C44.4035 5.2005 47.3002 5.20519 50.1964 5.2005C50.2796 5.93732 50.3493 6.67602 50.4264 7.41415C48.2899 7.16072 46.1358 7.15452 43.9875 7.16278C43.9408 8.37285 43.9173 9.58272 43.9139 10.7933C45.9295 10.7967 47.9489 10.8149 49.958 10.6275C49.881 11.3647 49.8073 12.102 49.7299 12.8389C47.7917 12.7763 45.8531 12.7569 43.9139 12.7658C43.9071 13.4107 43.924 14.0555 43.9278 14.7004C43.9543 15.3882 43.9413 16.0813 43.9971 16.7663C46.2286 16.7811 48.4665 16.7892 50.6866 16.5271C50.6197 17.2649 50.5336 18.0007 50.4653 18.7385C47.4791 18.7438 44.4929 18.74 41.5067 18.7404C41.6929 15.5211 41.7021 12.2954 41.654 9.07247C41.6255 7.78219 41.5851 6.49134 41.5073 5.20237ZM3.1665 20.9758C4.32077 20.9788 5.47503 20.9764 6.62873 20.9773C7.35071 20.9845 8.07494 20.9499 8.79354 21.0297C9.93616 21.1534 11.0621 21.5473 11.9864 22.2389C12.8104 22.8511 13.463 23.687 13.8722 24.6276C14.2196 25.4091 14.4031 26.2572 14.4647 27.1084C14.5292 28.1308 14.448 29.1716 14.1407 30.1528C13.8741 31.0131 13.4365 31.8269 12.8291 32.4954C12.314 33.0702 11.6786 33.5348 10.9818 33.8657C10.0887 34.2874 9.10184 34.4934 8.11684 34.5159C6.46566 34.5153 4.81505 34.5165 3.16406 34.5153C3.28335 32.4978 3.32168 30.4769 3.33427 28.4566C3.34235 25.9619 3.30496 23.4672 3.1665 20.9758ZM5.64618 22.9492C5.57253 24.6402 5.56577 26.3331 5.55863 28.0256C5.57404 29.5357 5.57686 31.0469 5.64655 32.5566C6.69655 32.5301 7.76383 32.6417 8.79692 32.4007C9.59912 32.2188 10.3666 31.8254 10.9292 31.218C11.5723 30.5355 11.9219 29.6232 12.0442 28.7036C12.1667 27.7515 12.122 26.7656 11.8291 25.8469C11.5744 25.0351 11.0737 24.2919 10.3758 23.797C9.57301 23.2152 8.56942 22.9781 7.59118 22.9498C6.94285 22.9483 6.29451 22.9501 5.64618 22.9492ZM26.044 20.9788C27.4585 20.9749 28.8733 20.9783 30.2883 20.9773C30.8054 20.9807 31.3243 20.9591 31.8379 21.0249C32.682 21.1321 33.5073 21.4462 34.1791 21.9738C34.8241 22.4716 35.3165 23.1628 35.583 23.9323C35.924 24.9201 35.9361 26.0186 35.6234 27.0151C35.3185 27.9997 34.6354 28.8494 33.7598 29.3871C34.5654 31.0954 35.3676 32.8052 36.1683 34.5159C35.255 34.5159 34.3416 34.5159 33.4284 34.5159C32.8571 33.0071 32.2155 31.526 31.5061 30.0773C30.4927 30.1061 29.4779 30.0844 28.4641 30.0912C28.4809 31.5667 28.5329 33.0419 28.6116 34.5159C27.7561 34.5159 26.9005 34.5165 26.045 34.5153C26.1522 32.7697 26.1906 31.0204 26.2108 29.2721C26.2278 26.5072 26.2103 23.7403 26.044 20.9788ZM28.5218 22.9554C28.4861 24.0837 28.4564 25.2125 28.4516 26.3414C28.4641 26.9579 28.4179 27.5743 28.454 28.1909C29.2432 28.192 30.0319 28.1909 30.8211 28.1915C31.5416 28.1757 32.2895 27.9356 32.7949 27.4028C33.2783 26.9102 33.4832 26.2008 33.4663 25.5228C33.4645 24.8647 33.2475 24.1871 32.7738 23.7168C32.2457 23.1748 31.4676 22.9486 30.7259 22.9486C29.9911 22.9541 29.2562 22.9409 28.5218 22.9554ZM37.3639 20.9745C38.1041 20.9811 38.8443 20.9749 39.5845 20.9779C41.0455 24.5267 42.512 28.0737 43.9706 31.6235C45.4505 28.0808 46.8986 24.5249 48.3679 20.9773C49.084 20.9773 49.8006 20.9768 50.5167 20.9779C50.4498 22.2528 50.3989 23.5288 50.3758 24.8052C50.3206 28.0419 50.3403 31.2821 50.5167 34.5153C49.6862 34.5159 48.8556 34.5159 48.0254 34.5159C48.1039 33.2188 48.1496 31.9194 48.1697 30.6203C48.2082 29.3054 48.177 27.989 48.2189 26.6746C48.2044 26.428 48.2516 26.1811 48.214 25.9363C47.8854 26.8266 47.5084 27.6991 47.1612 28.5824C46.3652 30.5601 45.5683 32.5378 44.7725 34.5153C44.201 34.5131 43.6293 34.5227 43.0578 34.5106C42.1344 32.1809 41.187 29.8609 40.2553 27.5345C40.038 27.0073 39.8351 26.474 39.6119 25.9498C39.6132 26.6102 39.6354 27.2706 39.6461 27.9307C39.6393 30.1267 39.6835 32.3233 39.8129 34.5159C38.9947 34.5153 38.1768 34.5165 37.3586 34.5153C37.4274 33.2352 37.4764 31.9539 37.5004 30.6721C37.551 27.6076 37.5389 24.5412 37.3836 21.4789C37.3749 21.3106 37.3595 21.1428 37.3639 20.9745ZM15.6921 20.9783C18.546 20.9758 21.3995 20.9779 24.2534 20.9773C24.3318 21.7157 24.4073 22.4544 24.4809 23.1931C22.3877 22.9473 20.2783 22.9362 18.1742 22.9498C18.1272 24.1593 18.1054 25.3697 18.0998 26.5803C20.0711 26.5837 22.0464 26.588 24.012 26.4086C23.9322 27.1483 23.8706 27.8909 23.7763 28.6292C21.8857 28.5451 19.9922 28.5503 18.0998 28.5407C18.0992 29.8797 18.1233 31.218 18.1742 32.556C20.3659 32.5666 22.5628 32.5598 24.7434 32.3098C24.6709 33.0456 24.5948 33.781 24.5174 34.5159C21.5759 34.5153 18.6345 34.5168 15.6926 34.5153C15.8181 32.4339 15.8589 30.3486 15.8629 28.2642C15.8696 25.8343 15.8394 23.4042 15.6921 20.9783ZM0.340956 39.0247C18.0074 39.0247 35.6734 39.0242 53.3398 39.0253C53.3404 39.2134 53.3404 39.4012 53.3398 39.5893C35.674 39.5904 18.0074 39.5899 0.340956 39.5899C0.339829 39.4012 0.339829 39.2128 0.340956 39.0247ZM16.3179 44.066C16.6434 44.0083 16.9998 44.0237 17.2912 44.1943C17.5894 44.3743 17.8174 44.695 17.8208 45.0519C17.8242 45.7247 17.8233 46.3976 17.8212 47.07C17.8218 47.3546 17.6871 47.6269 17.4759 47.8149C17.1774 48.0967 16.7329 48.1458 16.3432 48.08C15.9739 48.0212 15.6507 47.7524 15.5204 47.4033C15.4492 47.2196 15.4666 47.0189 15.4661 46.8265C15.4661 46.235 15.4666 45.643 15.4655 45.0514C15.4608 44.5734 15.8561 44.1496 16.3179 44.066ZM16.3583 44.5445C16.1264 44.6225 15.9677 44.8547 15.9726 45.0985C15.9729 45.766 15.9634 46.4347 15.9773 47.1018C15.9932 47.4321 16.3192 47.6567 16.6318 47.6475C16.9604 47.6712 17.3072 47.4187 17.3047 47.0723C17.3057 46.3952 17.3081 45.7176 17.3032 45.0409C17.2811 44.5926 16.7344 44.3805 16.3583 44.5445ZM32.6232 44.0666C32.9724 44.0031 33.3606 44.026 33.6596 44.2353C33.8545 44.3771 34.0262 44.571 34.0912 44.8087C34.1372 44.9629 34.1258 45.1265 34.1273 45.2862C34.1258 45.8816 34.1273 46.4769 34.1267 47.0723C34.132 47.5538 33.7382 47.9838 33.274 48.0732C32.9474 48.1347 32.5896 48.1165 32.2942 47.9521C31.988 47.7693 31.7629 47.4311 31.7695 47.0676C31.7695 46.4106 31.771 45.754 31.7691 45.0976C31.7494 44.6056 32.1462 44.1536 32.6232 44.0666ZM32.666 44.543C32.4548 44.6185 32.2865 44.8211 32.288 45.0504C32.2871 45.7388 32.2856 46.4273 32.2886 47.1157C32.3062 47.4375 32.6314 47.6571 32.9364 47.6475C33.2446 47.6669 33.5828 47.449 33.6072 47.1238C33.6134 46.4472 33.6072 45.7705 33.6102 45.0942C33.626 44.8581 33.4645 44.6373 33.2505 44.5507C33.0652 44.4757 32.8528 44.4742 32.666 44.543ZM48.407 44.4076C48.8507 43.902 49.7709 43.8986 50.1791 44.4508C50.3336 44.6287 50.4085 44.8614 50.4115 45.0961C50.2436 45.0967 50.0767 45.0967 49.9099 45.0961C49.8964 44.7917 49.6424 44.5272 49.338 44.5075C49.0606 44.4782 48.7541 44.6403 48.6829 44.9221C48.6204 45.1201 48.7295 45.3257 48.8768 45.4555C49.1581 45.7147 49.5443 45.8021 49.853 46.0206C50.1523 46.2081 50.3961 46.5117 50.4393 46.8709C50.4979 47.1989 50.3888 47.5504 50.147 47.7813C49.8165 48.1294 49.2789 48.1608 48.8387 48.0483C48.3482 47.9183 48.0331 47.3956 48.0981 46.9002C48.2649 46.8996 48.4319 46.8996 48.5993 46.8996C48.5988 47.1132 48.6333 47.3543 48.8109 47.4971C49.0936 47.7212 49.5535 47.6971 49.8049 47.4345C50.0117 47.2014 49.9392 46.8314 49.7416 46.616C49.5067 46.3385 49.1408 46.25 48.8402 46.0691C48.5728 45.9191 48.3074 45.717 48.2048 45.416C48.0996 45.0769 48.1481 44.6666 48.407 44.4076ZM3.46653 44.0872C3.63486 44.0861 3.80319 44.0861 3.97152 44.0872C3.97152 45.2573 3.97095 46.4273 3.97208 47.5976C4.48853 47.5981 5.00555 47.597 5.52256 47.5976C5.52256 47.7495 5.52256 47.9015 5.52256 48.0539C4.8391 48.0573 4.15563 48.0496 3.47235 48.0582C3.45882 46.7347 3.47085 45.4108 3.46653 44.0872ZM7.34526 46.349C7.57578 45.5936 7.80986 44.8359 8.06292 44.0891C8.3466 44.0848 8.63085 44.0824 8.91472 44.0925C9.13791 44.847 9.39172 45.5924 9.6149 46.3471C9.63313 46.915 9.61735 47.485 9.62204 48.0539C9.44996 48.0545 9.27768 48.0545 9.10616 48.0539C9.10503 47.6336 9.10559 47.2128 9.10559 46.7925C8.68477 46.7914 8.26394 46.792 7.84311 46.792C7.84255 47.2128 7.84368 47.6331 7.84255 48.0539C7.67478 48.0545 7.50645 48.0545 7.33869 48.0539C7.34301 47.4854 7.32798 46.9165 7.34526 46.349ZM7.87524 46.336C8.28122 46.3332 8.68721 46.336 9.09301 46.3345C8.90495 45.7401 8.72084 45.1442 8.53034 44.5503C8.50873 44.5473 8.46552 44.5411 8.44373 44.5377C8.23801 45.1312 8.06762 45.7377 7.87524 46.336ZM11.5464 44.0872C11.9595 44.0938 12.3745 44.0685 12.7873 44.1045C13.1055 44.131 13.4072 44.3277 13.5447 44.6185C13.652 44.8432 13.6062 45.0985 13.6139 45.3386C13.615 45.5838 13.4664 45.7959 13.2932 45.9556C13.513 46.1312 13.6659 46.3976 13.662 46.6843C13.6576 46.9729 13.702 47.2874 13.5485 47.5485C13.3773 47.8553 13.0268 48.0233 12.6852 48.0434C12.3076 48.0684 11.9287 48.0458 11.5507 48.0573C11.5406 46.7337 11.5498 45.4108 11.5464 44.0872ZM12.0634 44.5441C12.0634 44.9447 12.0634 45.3448 12.0634 45.7454C12.2875 45.742 12.5117 45.7527 12.7352 45.742C12.9267 45.7305 13.1066 45.581 13.1215 45.3843C13.1436 45.1231 13.1853 44.7745 12.9156 44.6225C12.6526 44.4927 12.3458 44.5605 12.0634 44.5441ZM12.064 46.1908C12.0628 46.6597 12.0634 47.1286 12.0634 47.5976C12.2967 47.5923 12.5333 47.6145 12.7641 47.5716C12.9778 47.5326 13.1474 47.3374 13.1513 47.1194C13.1557 46.853 13.209 46.5299 12.9969 46.3246C12.7377 46.1033 12.3723 46.2197 12.064 46.1908ZM19.7104 44.0867C20.1121 44.091 20.5135 44.0775 20.9146 44.0934C21.2442 44.1036 21.5461 44.3114 21.7026 44.596C21.8247 44.8239 21.7852 45.0895 21.7905 45.3381C21.7843 45.6109 21.8294 45.9066 21.6847 46.1538C21.5913 46.3249 21.4326 46.4491 21.2605 46.5352C21.4841 47.0426 21.7198 47.5446 21.9425 48.053C21.755 48.0554 21.5673 48.0545 21.3802 48.0545C21.1696 47.575 20.959 47.0954 20.7536 46.6141C20.5742 46.6101 20.3952 46.6111 20.216 46.6122C20.2148 47.0926 20.2163 47.5735 20.2154 48.0545C20.0465 48.0545 19.8787 48.0545 19.7104 48.0539C19.7104 46.7313 19.7104 45.4093 19.7104 44.0867ZM20.216 44.5441C20.2154 45.0807 20.2148 45.6174 20.216 46.1547C20.4333 46.1523 20.6511 46.1585 20.869 46.1538C21.07 46.1421 21.2624 45.9763 21.2725 45.7694C21.2759 45.5132 21.2716 45.2567 21.274 45.001C21.2932 44.7696 21.0869 44.5704 20.8647 44.5528C20.6488 44.5325 20.4318 44.5479 20.216 44.5441ZM24.3564 44.0925C24.645 44.0829 24.9339 44.0824 25.2221 44.0929C25.413 44.7335 25.6217 45.3683 25.8199 46.0071C25.8597 46.1495 25.9285 46.2879 25.9275 46.439C25.9257 46.9772 25.9272 47.5153 25.926 48.0539C25.7577 48.0545 25.5899 48.0545 25.4222 48.0539C25.421 47.6331 25.4222 47.2128 25.4216 46.7925C25.0013 46.791 24.5809 46.7935 24.161 46.791C24.1567 47.2119 24.1606 47.6331 24.1591 48.0545C23.9865 48.0545 23.8142 48.055 23.6421 48.0535C23.6483 47.4845 23.6292 46.9141 23.6513 46.3465C23.8773 45.5924 24.1293 44.846 24.3564 44.0925ZM24.7468 44.5417C24.5476 45.1355 24.3731 45.7382 24.1826 46.3351C24.5892 46.3345 24.995 46.3351 25.4013 46.3351C25.2091 45.7397 25.0297 45.1404 24.8349 44.546C24.8127 44.5445 24.769 44.5426 24.7468 44.5417ZM27.7307 44.0872C28.4916 44.0867 29.2528 44.0861 30.0146 44.0872C30.0146 44.2387 30.0146 44.3906 30.0141 44.543C29.7174 44.5455 29.4206 44.5398 29.1239 44.5464C29.1264 45.7151 29.1234 46.8842 29.1258 48.0535C28.9584 48.0539 28.7916 48.0535 28.6248 48.0573C28.6141 46.8876 28.6214 45.7176 28.6214 44.5479C28.3246 44.5377 28.0273 44.5464 27.7307 44.543C27.7296 44.3906 27.7296 44.2387 27.7307 44.0872ZM36.0144 44.0867C36.4164 44.091 36.8194 44.0775 37.2216 44.0938C37.6693 44.1079 38.0973 44.493 38.095 44.9533C38.0926 45.24 38.0988 45.5267 38.092 45.8138C38.0766 46.1341 37.8521 46.4087 37.566 46.5376C37.7954 47.042 38.0248 47.5467 38.2508 48.053C38.0622 48.0554 37.8743 48.0545 37.6857 48.0545C37.4785 47.5745 37.2654 47.0969 37.062 46.6154C36.881 46.6088 36.7003 46.6116 36.5199 46.6122C36.5188 47.0926 36.5199 47.5735 36.5194 48.0545C36.3505 48.0545 36.1827 48.0545 36.0144 48.0539C36.0144 46.7319 36.0144 45.4093 36.0144 44.0867ZM36.5199 44.5441C36.5194 45.0807 36.5188 45.6174 36.5199 46.1547C36.8224 46.1181 37.1782 46.2475 37.4394 46.0446C37.6413 45.8853 37.5636 45.606 37.5769 45.3852C37.5602 45.138 37.652 44.8244 37.4197 44.6512C37.1585 44.4686 36.8166 44.5701 36.5199 44.5441ZM39.9587 44.0867C40.7199 44.0867 41.4808 44.0867 42.2421 44.0867C42.2426 44.2387 42.2426 44.3906 42.2421 44.5436C41.9463 44.5436 41.6506 44.5445 41.3547 44.5426C41.3504 45.5607 41.3538 46.5789 41.3529 47.5976C41.6491 47.5976 41.9458 47.597 42.2421 47.5976C42.2426 47.7495 42.2426 47.9015 42.2421 48.0545C41.4808 48.0545 40.7194 48.055 39.9581 48.0539C39.9576 47.9015 39.9576 47.7495 39.9581 47.5976C40.2544 47.597 40.5507 47.5976 40.8473 47.5976C40.8484 46.5799 40.8479 45.5616 40.8473 44.5439C40.5525 44.5445 40.2578 44.5408 39.963 44.5464C39.9563 44.3931 39.9566 44.2396 39.9587 44.0867ZM44.2145 44.0867C44.8921 44.0872 45.5692 44.0857 46.247 44.0872C46.2455 44.2381 46.2459 44.3891 46.248 44.5411C45.739 44.5464 45.2297 44.543 44.721 44.5426C44.7176 44.9394 44.72 45.3366 44.72 45.7339C45.1803 45.7345 45.641 45.7333 46.1016 45.7345C46.1022 45.8859 46.1022 46.0384 46.1016 46.1908C45.641 46.1908 45.1803 46.1902 44.72 46.1908C44.7189 46.6597 44.7195 47.1286 44.72 47.5976C45.2448 47.5981 45.7695 47.5966 46.2946 47.5981C46.2951 47.7505 46.2955 47.904 46.2902 48.0569C45.5987 48.0511 44.9066 48.0563 44.215 48.0545C44.2139 46.7319 44.2139 45.4093 44.2145 44.0867ZM0.328369 52.5614C1.44994 52.5378 2.57302 52.558 3.69554 52.5513C20.2434 52.5513 36.7916 52.5507 53.3398 52.5518C53.341 52.7437 53.341 52.936 53.3389 53.1284H0.328369V52.5614Z" fill="black"/>
</g>
</g>
</g>
</g>
</g>
<defs>
<clipPath id="clip0_837_14764">
<rect width="53.0096" height="53" fill="white" transform="translate(0.328369 0.128418)"/>
</clipPath>
</defs>
</svg>
