<svg width="111" height="54" viewBox="0 0 111 54" fill="none" xmlns="http://www.w3.org/2000/svg">
<g id="philips-avent-logo-1 1" clip-path="url(#clip0_837_14738)">
<path id="Vector" d="M15.7745 38.2487L10.4585 48.9819H21.0987L15.7745 38.2487Z" fill="#FDD208"/>
<path id="Vector_2" d="M27.0383 27.2528L37.0251 47.7946L47.1916 27.2482L27.0383 27.2528Z" fill="#7BC244"/>
<path id="Vector_3" d="M49.4319 31.3958V38.1825H55.8309V31.4089L49.4319 31.3958ZM49.4365 48.9818H55.8309V42.2842H49.4364L49.4365 48.9818Z" fill="#0992CC"/>
<path id="Vector_4" d="M74.8299 27.7399H74.5245L74.4954 53.1284H86.9809L74.8299 27.7399Z" fill="#F6A0A5"/>
<path id="Vector_5" d="M102.994 53.1102H109.061V31.3956H102.994V53.1102Z" fill="#F89821"/>
<g id="Group">
<g id="Group_2">
<path id="Vector_6" d="M74.7192 27.0668H69.7092V53.3141H87.2774L74.7192 27.0668ZM74.7769 27.9949C75.3967 29.2909 86.4848 52.4816 86.7172 52.969H74.7499L74.7769 27.9949ZM116.191 27.0424H95.9376V31.6437H102.81V53.2961H109.249V31.6437H116.191V27.0424ZM108.897 52.9423H103.163V31.6437H108.897V52.9423Z" fill="#005588"/>
<path id="Vector_7" d="M87.2621 53.3139H92.3005V27.062H87.2621V53.3139ZM47.4928 27.0601L21.5135 27.067L34.4042 53.5536L47.4928 27.0601ZM37.0775 47.3204L27.4002 27.4144H46.926C46.6931 27.8794 38.1019 45.2522 37.0775 47.3204ZM64.9161 31.6437V27.0425H49.2477V53.3409H64.9161V48.7293H56.0188V42.5323H64.9161V37.9299H56.0188V31.6438L64.9161 31.6437ZM55.6644 48.7294H49.6027V42.5324H55.6645L55.6644 48.7294ZM55.6644 37.93H49.597L49.6021 31.653H55.6644V37.93ZM2.87061 53.3497H8.57171L10.6416 49.1723H20.9004L22.9742 53.3497H28.6753L15.7611 26.8655L2.87061 53.3497ZM15.7743 38.8245L20.7272 48.818H10.8175L15.7743 38.8245Z" fill="#005588"/>
</g>
<path id="Vector_8" d="M13.163 5.46264C13.163 7.07498 12.3822 8.17357 10.4035 8.17357H9.77963V3.02631C10.0017 3.01536 10.2106 3.01536 10.4034 3.01536C12.2818 3.01536 13.163 3.90112 13.163 5.46264ZM11.1363 10.4088C14.6726 10.4088 16.9127 8.58815 16.9127 5.40975C16.9127 1.92145 14.5162 0.665265 10.6118 0.665265C9.10448 0.665265 7.28388 0.775987 5.98242 0.931118V13.3788H9.77963V10.4086L11.1363 10.4088ZM62.0326 5.46277C62.0326 7.0751 61.2501 8.17369 59.2714 8.17369H58.6458V3.02644C58.8685 3.01549 59.0768 3.01548 59.2714 3.01548C61.1474 3.01548 62.0326 3.90125 62.0326 5.46277ZM59.9991 10.4088C63.5394 10.4088 65.7755 8.58815 65.7755 5.40975C65.7755 1.92145 63.3835 0.665265 59.4797 0.665265C57.969 0.665265 56.1495 0.775987 54.8503 0.931118V13.3788H58.6458V10.4086L59.9991 10.4088ZM70.7237 4.10952C70.7237 3.4361 71.3989 3.11931 72.4912 3.11931C73.687 3.11931 74.9895 3.38074 75.8729 3.73972L75.5607 1.03729C74.5728 0.827288 73.687 0.665265 72.0724 0.665265C69.0025 0.665265 66.9204 1.88602 66.9204 4.42175C66.9204 8.79188 72.8543 7.90612 72.8543 9.9414C72.8543 10.7187 72.2822 11.1375 70.8784 11.1375C69.629 11.1375 67.7045 10.7187 66.5551 10.1497L66.9733 13.0158C68.1189 13.4342 69.6782 13.6334 70.9297 13.6334C74.1031 13.6334 76.7039 12.5946 76.7039 9.46936C76.7039 5.30751 70.7237 6.08944 70.7237 4.10952ZM51.9832 0.931118H48.1855V13.3786H51.9832V0.931118ZM36.5813 0.931118H32.7814V13.3786H36.5813V0.931118ZM43.1915 10.8739V0.931242H39.3938V13.3786H46.2592L46.8335 10.8737L43.1915 10.8739ZM29.9706 0.931242H26.1722V5.87944H22.2177V0.931118H18.4188V13.3788H22.2177V8.48125H26.1722V13.3788H29.9706V0.931242Z" fill="#0B7ABF"/>
<path id="Vector_9" d="M15.7745 38.2487L10.4587 48.9819H21.0989L15.7745 38.2487Z" fill="#FDD208"/>
<path id="Vector_10" d="M27.0383 27.2528L37.025 47.7947L47.1916 27.2482L27.0383 27.2528Z" fill="#7BC244"/>
<path id="Vector_11" d="M49.4316 31.3958V38.1824H55.8306V31.4089L49.4316 31.3958ZM49.4362 48.9818H55.8306V42.2842H49.4362V48.9818Z" fill="#0992CC"/>
<path id="Vector_12" d="M74.8299 27.7399H74.5245L74.4954 53.1284H86.9809L74.8299 27.7399Z" fill="#F6A0A5"/>
<path id="Vector_13" d="M102.994 53.1102H109.061V31.3956H102.994V53.1102Z" fill="#F89821"/>
<path id="Vector_14" d="M74.7192 27.0668H69.7092V53.3141H87.2774L74.7192 27.0668ZM74.7769 27.9949C75.3967 29.2909 86.4848 52.4816 86.7172 52.969H74.7499L74.7769 27.9949ZM116.191 27.0424H95.9376V31.6437H102.81V53.2961H109.249V31.6437H116.191V27.0424ZM108.897 52.9423H103.163V31.6437H108.897V52.9423Z" fill="#005588"/>
<path id="Vector_15" d="M87.2621 53.3139H92.3005V27.062H87.2621V53.3139ZM47.4928 27.0601L21.5135 27.067L34.4042 53.5536L47.4928 27.0601ZM37.0775 47.3204L27.4002 27.4144H46.926C46.6931 27.8794 38.1019 45.2522 37.0775 47.3204ZM64.9161 31.6437V27.0425H49.2477V53.3409H64.9161V48.7293H56.0188V42.5323H64.9161V37.9299H56.0188V31.6438L64.9161 31.6437ZM55.6644 48.7294H49.6027V42.5324H55.6645L55.6644 48.7294ZM55.6644 37.93H49.597L49.6021 31.653H55.6644V37.93ZM2.93262 53.4117L8.63372 53.3849L10.6843 49.1947L20.9443 49.15L23.0385 53.3141L28.7373 53.2919L15.6994 26.8651L2.93262 53.4117ZM15.769 38.8242L20.7657 48.791L10.8583 48.8402L15.769 38.8242Z" fill="#005588"/>
<path id="Vector_16" d="M13.163 5.46264C13.163 7.07498 12.3822 8.17357 10.4035 8.17357H9.77963V3.02631C10.0017 3.01536 10.2106 3.01536 10.4034 3.01536C12.2818 3.01536 13.163 3.90112 13.163 5.46264ZM11.1363 10.4088C14.6726 10.4088 16.9127 8.58815 16.9127 5.40975C16.9127 1.92145 14.5162 0.665265 10.6118 0.665265C9.10448 0.665265 7.28388 0.775987 5.98242 0.931118V13.3788H9.77963V10.4086L11.1363 10.4088ZM62.0326 5.46277C62.0326 7.0751 61.2501 8.17369 59.2714 8.17369H58.6458V3.02644C58.8685 3.01549 59.0768 3.01548 59.2714 3.01548C61.1474 3.01548 62.0326 3.90125 62.0326 5.46277ZM59.9991 10.4088C63.5394 10.4088 65.7755 8.58815 65.7755 5.40975C65.7755 1.92145 63.3835 0.665265 59.4797 0.665265C57.969 0.665265 56.1495 0.775987 54.8503 0.931118V13.3788H58.6458V10.4086L59.9991 10.4088ZM70.7237 4.10952C70.7237 3.4361 71.3989 3.11931 72.4912 3.11931C73.687 3.11931 74.9895 3.38074 75.8729 3.73972L75.5607 1.03729C74.5728 0.827288 73.687 0.665265 72.0724 0.665265C69.0025 0.665265 66.9204 1.88602 66.9204 4.42175C66.9204 8.79188 72.8543 7.90612 72.8543 9.9414C72.8543 10.7187 72.2822 11.1375 70.8784 11.1375C69.629 11.1375 67.7045 10.7187 66.5551 10.1497L66.9733 13.0158C68.1189 13.4342 69.6782 13.6334 70.9297 13.6334C74.1031 13.6334 76.7039 12.5946 76.7039 9.46936C76.7039 5.30751 70.7237 6.08944 70.7237 4.10952ZM51.9832 0.931118H48.1855V13.3786H51.9832V0.931118ZM36.5813 0.931118H32.7814V13.3786H36.5813V0.931118ZM43.1915 10.8739V0.931242H39.3938V13.3786H46.2592L46.8335 10.8737L43.1915 10.8739ZM29.9706 0.931242H26.1722V5.87944H22.2177V0.931118H18.4188V13.3788H22.2177V8.48125H26.1722V13.3788H29.9706V0.931242Z" fill="#0B7ABF"/>
</g>
</g>
<defs>
<clipPath id="clip0_837_14738">
<rect width="109.504" height="53" fill="white" transform="translate(0.914795 0.128418)"/>
</clipPath>
</defs>
</svg>
