<svg width="148" height="43" viewBox="0 0 148 43" fill="none" xmlns="http://www.w3.org/2000/svg">
<g clip-path="url(#clip0_837_15439)">
<path fill-rule="evenodd" clip-rule="evenodd" d="M110.395 28.7561H88.9837C88.9837 31.2622 89.6788 33.3066 91.0677 34.8904C92.4579 36.4378 94.3734 37.2121 96.8155 37.2121C100.421 37.2121 102.788 35.6283 103.915 32.4595H110C109.325 35.5179 107.728 37.9312 105.212 39.6994C102.844 41.3572 100.046 42.1855 96.8155 42.1855C92.346 42.1855 88.852 40.8051 86.335 38.0416C83.8179 35.2782 82.5593 31.6475 82.5593 27.1535C82.5593 22.9167 83.8376 19.3789 86.3916 16.5414C89.0587 13.5571 92.4776 12.0649 96.6469 12.0649C100.741 12.0649 104.102 13.5207 106.732 16.431C109.248 19.2321 110.507 22.6393 110.507 26.6552C110.507 27.3568 110.47 28.0558 110.395 28.7561ZM103.972 24.6122C103.897 22.5477 103.165 20.7795 101.775 19.3049C100.421 17.7951 98.7125 17.0397 96.6469 17.0397C94.4312 17.0397 92.608 17.7763 91.1809 19.2509C89.792 20.6866 89.0587 22.4737 88.9837 24.6122" fill="#231F20"/>
<path fill-rule="evenodd" clip-rule="evenodd" d="M136.287 41.4124H128.865L121.767 30.8569L114.885 41.4124H107.627L118.191 26.3804L108.493 12.8392H115.969L121.82 21.6265L127.943 12.8392H135.095L125.559 26.0478" fill="#231F20"/>
<mask id="mask0_837_15439" style="mask-type:luminance" maskUnits="userSpaceOnUse" x="27" y="10" width="32" height="33">
<path d="M27.1035 10.5878H58.5979V42.6285H27.1035V10.5878Z" fill="white"/>
</mask>
<g mask="url(#mask0_837_15439)">
<path d="M42.8569 10.6053C51.5252 10.6053 58.5524 17.7737 58.5524 26.6163C58.5524 35.4601 51.5252 42.6285 42.8569 42.6285C34.1886 42.6285 27.1614 35.4601 27.1614 26.6163C27.1614 17.7737 34.1886 10.6053 42.8569 10.6053ZM42.8569 12.9685C35.468 12.9685 29.4779 19.0789 29.4779 26.6163C29.4779 34.1549 35.468 40.2654 42.8569 40.2654C50.2458 40.2654 56.2371 34.1549 56.2371 26.6163C56.2371 19.0789 50.2458 12.9685 42.8569 12.9685Z" fill="#231F20"/>
</g>
<path fill-rule="evenodd" clip-rule="evenodd" d="M140.743 10.1348C140.743 10.8878 140.502 11.5027 140.019 11.9821C139.536 12.4565 138.959 12.6937 138.288 12.6937C137.569 12.6937 136.976 12.449 136.511 11.9608C136.051 11.4726 135.821 10.864 135.821 10.1348C135.821 9.38183 136.067 8.76439 136.559 8.28122C137.032 7.81061 137.609 7.57593 138.288 7.57593C138.995 7.57593 139.581 7.82441 140.045 8.32138C140.511 8.81459 140.743 9.41823 140.743 10.1348ZM140.206 10.1348C140.206 9.51486 140.021 9.00785 139.65 8.6163C139.284 8.21973 138.83 8.02144 138.288 8.02144C137.711 8.02144 137.24 8.23102 136.874 8.65018C136.529 9.05177 136.357 9.54623 136.357 10.1348C136.357 10.7322 136.532 11.2292 136.88 11.6257C137.243 12.0411 137.711 12.2482 138.288 12.2482C138.861 12.2482 139.328 12.0361 139.69 11.6132C140.034 11.2116 140.206 10.7184 140.206 10.1348ZM139.456 11.5994H138.939L138.222 10.3883H137.793V11.5994H137.336V8.7669H138.389C139.065 8.7669 139.402 9.03797 139.402 9.58012C139.402 10.0457 139.161 10.303 138.677 10.3532L139.456 11.5994ZM138.945 9.54623C138.945 9.29147 138.745 9.16347 138.343 9.16347H137.793V9.99175H138.302C138.517 9.99175 138.666 9.9679 138.751 9.92273C138.881 9.84994 138.945 9.72444 138.945 9.54623Z" fill="#231F20"/>
<mask id="mask1_837_15439" style="mask-type:luminance" maskUnits="userSpaceOnUse" x="137" y="32" width="11" height="11">
<path d="M137.649 32.4343H147.333V42.3938H137.649V32.4343Z" fill="white"/>
</mask>
<g mask="url(#mask1_837_15439)">
<path d="M137.761 37.3865C137.761 34.6895 139.904 32.5046 142.546 32.5046C145.189 32.5046 147.332 34.6895 147.332 37.3865C147.332 40.0834 145.189 42.2683 142.546 42.2683C139.904 42.2683 137.761 40.0834 137.761 37.3865Z" fill="#ED1C24"/>
</g>
<path d="M0.333252 1.20813H1.87721V24.6498L27.5611 0.627075L28.6044 1.78792L11.8016 17.5052L28.709 41.4074L27.4566 42.3298L10.655 18.5769L1.87721 26.787V41.4463H0.333252" fill="#231F20"/>
<path d="M70.9349 11.5754V25.2446H80.4853V28.3958H70.9349V42.0788H67.8458V28.3958H57.4243V25.2446H67.8458V11.5754" fill="#231F20"/>
</g>
<defs>
<clipPath id="clip0_837_15439">
<rect width="147" height="42" fill="white" transform="translate(0.333252 0.628418)"/>
</clipPath>
</defs>
</svg>
