<svg width="93" height="54" viewBox="0 0 93 54" fill="none" xmlns="http://www.w3.org/2000/svg">
<path d="M87.3333 23.3339C87.3333 24.9102 86.0727 26.2334 84.4968 26.2334C83.1736 26.2334 81.975 25.0347 81.975 23.7115C81.975 23.4603 82.0379 23.1446 82.1013 22.8919H81.975C79.2648 24.9102 78.0046 32.0939 77.2483 34.5528H71.9547L75.4211 22.704L73.3413 22.6406L73.9082 21.0014H81.0934L80.4005 23.3973C81.3447 21.9474 82.8576 20.7505 84.6862 20.7505C86.1361 20.7505 87.3333 21.8844 87.3333 23.3339ZM89.7904 26.4847C89.7904 7.76598 61.4291 1.02283 46.6808 1.02283C32.2471 1.02283 3.7594 7.70299 3.7594 26.2964C3.7594 36.6957 13.2757 43.7549 21.9741 47.3476H22.0371L30.2936 18.9219C32.0588 12.8717 34.6426 6.56911 42.0161 6.56911C44.6013 6.56911 48.0044 7.70299 48.0044 10.8552C48.0044 12.619 46.6808 14.2582 44.8522 14.2582C43.3411 14.2582 42.079 13.0614 42.079 11.5484C42.079 9.71949 43.4656 8.8383 45.1049 8.7753C44.6013 7.76598 43.4026 7.38873 42.3317 7.38873C37.2894 7.38873 36.1555 17.5983 35.1462 21.0014H44.2852L40.3782 34.5528H35.0832L38.5496 22.704H34.6426L29.349 40.666C28.5294 43.5022 27.4571 46.2123 26.9535 49.1115C33.256 51.065 39.9362 52.0109 46.5544 52.0109C61.2398 52.0109 89.7904 45.582 89.7904 26.4847ZM71.8284 25.5401C71.8284 26.4847 71.639 27.4303 71.3863 28.3133H62.0594C61.6804 29.4471 61.2398 30.8337 61.2398 32.0324C61.2398 33.0399 61.8067 33.5439 62.7527 33.5439C64.4535 33.5439 65.0852 31.0231 65.5258 29.7628H70.9457C69.9379 33.1663 66.2821 35.2461 62.879 35.2461C59.2863 35.2461 56.5131 33.4189 56.5131 29.5735C56.5131 24.5312 60.5465 20.3715 65.6522 20.3715C68.8659 20.3715 71.8284 21.8844 71.8284 25.5401ZM58.089 21.0014L49.8945 32.9766L54.7475 33.0399L54.2439 34.5528H42.5211L50.7141 22.6406H45.9245L46.4281 21.0014H58.089ZM28.5294 19.4888C28.5294 26.4228 23.5501 28.3133 17.6251 28.3133H16.1752L14.1587 34.5528H8.86508L14.2217 16.0224V15.9591H11.8891L12.3311 14.3846L12.3945 14.3216H22.1005C25.6299 14.3216 28.5294 15.5185 28.5294 19.4888ZM67.0387 23.4603C67.0387 22.5777 66.4084 22.0107 65.5888 22.0107C63.6353 22.0107 62.942 25.2244 62.563 26.674H66.3451C66.5963 25.6035 67.0387 24.5312 67.0387 23.4603ZM23.0447 18.1023C23.0447 16.5274 22.2268 15.9591 20.7139 15.9591H19.7679L16.6172 26.674L17.6881 26.7374C21.4702 26.8004 23.0447 21.2541 23.0447 18.1023Z" fill="#007CC2"/>
</svg>
