<svg width="144" height="35" viewBox="0 0 144 35" fill="none" xmlns="http://www.w3.org/2000/svg">
<g clip-path="url(#clip0_837_15716)">
<mask id="mask0_837_15716" style="mask-type:luminance" maskUnits="userSpaceOnUse" x="1" y="0" width="45" height="35">
<path d="M1.07581 0.723267H45.5405V34.5335H1.07581V0.723267Z" fill="white"/>
</mask>
<g mask="url(#mask0_837_15716)">
<path d="M39.6016 0.723267H1.07581V6.35199H37.6799V6.35621C38.7376 6.35621 39.5883 7.16995 39.5883 8.17131V27.0855L39.5794 27.0982C39.5704 28.0974 38.7176 28.9048 37.6665 28.9048H8.90522C7.84972 28.9048 6.99241 28.0953 6.99241 27.0855V19.4414C6.99241 18.4379 7.84972 17.6263 8.90522 17.6263H33.6538V11.9997H6.97682C3.71679 11.9997 1.07581 14.5084 1.07581 17.6094V28.9196C1.07581 32.0185 3.71679 34.5335 6.97682 34.5335H39.6016C42.8639 34.5335 45.5026 32.0185 45.5026 28.9196V6.33723C45.5026 3.23616 42.8639 0.723267 39.6016 0.723267Z" fill="#1295D2"/>
</g>
<mask id="mask1_837_15716" style="mask-type:luminance" maskUnits="userSpaceOnUse" x="54" y="25" width="9" height="10">
<path d="M54.0913 25.9935H62.0722V34.5336H54.0913V25.9935Z" fill="white"/>
</mask>
<g mask="url(#mask1_837_15716)">
<path d="M59.9345 31.3545L58.3401 27.3343L56.7212 31.3545H59.9345ZM61.9786 34.3354H61.1213L60.1705 31.9574H56.4629L55.5232 34.3354H54.6414L58.0216 26.4552H58.6808" fill="black"/>
</g>
<mask id="mask2_837_15716" style="mask-type:luminance" maskUnits="userSpaceOnUse" x="66" y="25" width="7" height="10">
<path d="M66.0626 25.9935H72.9033V34.5336H66.0626V25.9935Z" fill="white"/>
</mask>
<g mask="url(#mask2_837_15716)">
<path d="M66.9756 30.1255H69.1245C70.0864 30.115 70.2623 30.115 70.4984 30.0707C71.3535 29.9358 71.7164 29.3202 71.7164 28.5971C71.7164 28.1059 71.5428 27.6126 71.1197 27.3343C70.73 27.0877 70.4605 27.0877 68.9842 27.0792H66.9756V30.1255ZM66.9756 34.3333H66.2385V26.4531H69.0643C70.3202 26.4531 70.8725 26.4531 71.3646 26.666C72.0104 26.9528 72.4802 27.6463 72.4802 28.6076C72.4802 29.0778 72.3288 30.37 70.897 30.6715C70.4984 30.7622 70.3113 30.7622 68.8194 30.7853H66.9756" fill="black"/>
</g>
<mask id="mask3_837_15716" style="mask-type:luminance" maskUnits="userSpaceOnUse" x="72" y="28" width="5" height="7">
<path d="M72.9033 28.6919H76.3237V34.5335H72.9033V28.6919Z" fill="white"/>
</mask>
<g mask="url(#mask3_837_15716)">
<path d="M73.9611 34.3354H73.2797V29.0102H73.9611V29.8556C74.3151 29.1536 74.9008 28.9175 75.5933 28.9175C75.7581 28.9175 75.836 28.9301 75.9808 28.9512V29.5457C75.767 29.512 75.7447 29.512 75.5577 29.512C75.3684 29.512 74.8162 29.5225 74.4064 29.9357C73.9722 30.3953 73.9722 30.9392 73.9611 32.0333" fill="black"/>
</g>
<mask id="mask4_837_15716" style="mask-type:luminance" maskUnits="userSpaceOnUse" x="76" y="28" width="7" height="7">
<path d="M76.3237 28.6919H82.0243V34.5335H76.3237V28.6919Z" fill="white"/>
</mask>
<g mask="url(#mask4_837_15716)">
<path d="M79.1361 29.4444C78.6418 29.4444 78.163 29.6342 77.8468 29.9925C77.3636 30.528 77.3168 31.3207 77.3168 31.7549C77.3168 33.2728 78.1407 33.8884 79.1027 33.8884C80.3319 33.8884 80.9064 32.9608 80.9198 31.7212C80.9198 31.4219 80.942 29.4444 79.1361 29.4444ZM79.1027 34.4681C77.4705 34.4681 76.5775 33.2391 76.5775 31.7444C76.5775 30.3594 77.3168 28.8837 79.1227 28.8837C80.8953 28.8837 81.6479 30.2708 81.6568 31.6432C81.6702 33.2623 80.6837 34.4681 79.1027 34.4681Z" fill="black"/>
</g>
<mask id="mask5_837_15716" style="mask-type:luminance" maskUnits="userSpaceOnUse" x="82" y="28" width="9" height="7">
<path d="M82.5944 28.6919H90.5752V34.5335H82.5944V28.6919Z" fill="white"/>
</mask>
<g mask="url(#mask5_837_15716)">
<path d="M90.3325 34.3353H89.6399V31.4535C89.6399 30.4606 89.6399 30.1591 89.4418 29.8808C89.2547 29.6131 88.9118 29.5014 88.5711 29.5014C87.4688 29.5014 87.1637 30.5386 87.117 30.762C87.0457 31.074 87.0324 31.4092 87.0324 32.1218V34.3353H86.3532V31.386C86.3398 30.8295 86.3398 30.6166 86.3064 30.3826C86.2842 30.2139 86.175 29.5014 85.2643 29.5014C84.7811 29.5014 84.3112 29.7227 84.0306 30.2139C83.7478 30.7051 83.7478 31.2427 83.7478 32.2019V34.3353H83.0553V29.0186H83.7478V30.1148C84.0663 28.909 85.1797 28.8984 85.4023 28.8984C86.037 28.8984 86.8698 29.1894 86.9522 30.2266C86.9878 30.079 87.0569 29.8344 87.235 29.5878C87.5846 29.0882 88.1368 28.8984 88.6891 28.8984C89.3571 28.8984 89.7557 29.1535 89.9673 29.4002C90.3191 29.8344 90.3191 30.4036 90.3325 31.7107" fill="black"/>
</g>
<mask id="mask6_837_15716" style="mask-type:luminance" maskUnits="userSpaceOnUse" x="91" y="26" width="2" height="9">
<path d="M91.7153 26.5332H92.8555V34.5336H91.7153V26.5332Z" fill="white"/>
</mask>
<g mask="url(#mask6_837_15716)">
<path d="M92.782 34.3333H92.1028V29.0082H92.782V34.3333ZM92.782 27.7581H92.1028V26.7419H92.782V27.7581Z" fill="black"/>
</g>
<mask id="mask7_837_15716" style="mask-type:luminance" maskUnits="userSpaceOnUse" x="93" y="28" width="6" height="7">
<path d="M93.9956 28.6919H98.5561V34.5335H93.9956V28.6919Z" fill="white"/>
</mask>
<g mask="url(#mask7_837_15716)">
<path d="M96.857 31.3334C97.2177 31.422 97.6898 31.5316 98.0417 31.9005C98.2866 32.1577 98.418 32.4929 98.418 32.8386C98.418 33.6207 97.77 34.4682 96.3159 34.4682C95.6011 34.4682 95.1424 34.2426 94.9086 34.0909C94.5077 33.8316 94.265 33.4964 94.0624 33.0389L94.7438 32.8175C94.8707 33.2961 95.3539 33.8758 96.3159 33.8758C97.2801 33.8758 97.7366 33.3846 97.7366 32.826C97.7366 32.1366 96.9973 31.968 96.5408 31.8773C96.3293 31.833 96.0932 31.7888 95.8683 31.7445C95.3539 31.6328 94.4142 31.4093 94.4142 30.37C94.4142 29.824 94.7438 28.8859 96.4228 28.8859C96.975 28.8859 97.4182 29.0102 97.7232 29.1873C98.2309 29.4804 98.3712 29.9231 98.418 30.0917L97.7477 30.2498C97.7121 30.1023 97.6408 29.8472 97.2667 29.6448C97.0307 29.512 96.7145 29.4551 96.3872 29.4551C95.9663 29.4551 95.0978 29.5563 95.0978 30.3489C95.0978 30.9308 95.6456 31.0741 96.2669 31.2069" fill="black"/>
</g>
<mask id="mask8_837_15716" style="mask-type:luminance" maskUnits="userSpaceOnUse" x="99" y="28" width="6" height="7">
<path d="M99.1261 28.6919H104.827V34.5335H99.1261V28.6919Z" fill="white"/>
</mask>
<g mask="url(#mask8_837_15716)">
<path d="M103.874 31.1416C103.816 30.6715 103.664 30.214 103.286 29.8809C103.052 29.6785 102.678 29.4783 102.126 29.4783C101.161 29.4783 100.46 30.1254 100.329 31.1416H103.874ZM104.66 32.9272C104.577 33.119 104.426 33.4184 104.132 33.7325C103.965 33.899 103.426 34.4682 102.219 34.4682C100.364 34.4682 99.5559 33.119 99.5559 31.6328C99.5559 29.8683 100.776 28.8859 102.137 28.8859C103.827 28.8859 104.706 30.2941 104.66 31.677H100.32C100.306 31.9574 100.329 32.3685 100.493 32.7838C100.941 33.8758 101.985 33.8758 102.219 33.8758C102.827 33.8758 103.533 33.6734 104.014 32.7606" fill="black"/>
</g>
<mask id="mask9_837_15716" style="mask-type:luminance" maskUnits="userSpaceOnUse" x="108" y="25" width="5" height="10">
<path d="M108.247 25.9935H112.237V34.5336H108.247V25.9935Z" fill="white"/>
</mask>
<g mask="url(#mask9_837_15716)">
<path d="M111.794 29.5668H110.529V34.3354H109.832V29.5668H108.601V29.0103H109.832V27.9942C109.848 27.191 109.848 27.134 109.917 26.9443C110.08 26.4974 110.478 26.2971 111.079 26.2971C111.338 26.2971 111.572 26.3414 111.794 26.3751V27.0223C111.618 26.9549 111.465 26.8874 111.135 26.8874C111.019 26.8874 110.739 26.8874 110.596 27.191C110.538 27.3238 110.538 27.3681 110.529 27.9372V29.0103H111.794" fill="black"/>
</g>
<mask id="mask10_837_15716" style="mask-type:luminance" maskUnits="userSpaceOnUse" x="112" y="28" width="6" height="7">
<path d="M112.237 28.6919H117.938V34.5335H112.237V28.6919Z" fill="white"/>
</mask>
<g mask="url(#mask10_837_15716)">
<path d="M115.081 29.4444C114.587 29.4444 114.103 29.6342 113.79 29.9925C113.309 30.528 113.262 31.3207 113.262 31.7549C113.262 33.2728 114.083 33.8884 115.045 33.8884C116.277 33.8884 116.851 32.9608 116.862 31.7212C116.862 31.4219 116.887 29.4444 115.081 29.4444ZM115.045 34.4681C113.415 34.4681 112.522 33.2391 112.522 31.7444C112.522 30.3594 113.262 28.8837 115.068 28.8837C116.84 28.8837 117.591 30.2708 117.602 31.6432C117.615 33.2623 116.629 34.4681 115.045 34.4681Z" fill="black"/>
</g>
<mask id="mask11_837_15716" style="mask-type:luminance" maskUnits="userSpaceOnUse" x="118" y="28" width="4" height="7">
<path d="M118.508 28.6919H121.928V34.5335H118.508V28.6919Z" fill="white"/>
</mask>
<g mask="url(#mask11_837_15716)">
<path d="M119.691 34.3354H119.011V29.0102H119.691V29.8556C120.045 29.1536 120.63 28.9175 121.323 28.9175C121.488 28.9175 121.57 28.9301 121.71 28.9512V29.5457C121.499 29.512 121.476 29.512 121.287 29.512C121.1 29.512 120.548 29.5225 120.138 29.9357C119.704 30.3953 119.704 30.9392 119.691 32.0333" fill="black"/>
</g>
<mask id="mask12_837_15716" style="mask-type:luminance" maskUnits="userSpaceOnUse" x="125" y="25" width="7" height="10">
<path d="M125.919 25.9935H131.62V34.5336H125.919V25.9935Z" fill="white"/>
</mask>
<g mask="url(#mask12_837_15716)">
<path d="M131.299 34.3354H125.923V26.4425H126.718V33.6418H131.299" fill="black"/>
</g>
<mask id="mask13_837_15716" style="mask-type:luminance" maskUnits="userSpaceOnUse" x="132" y="26" width="2" height="9">
<path d="M132.19 26.5332H133.33V34.5336H132.19V26.5332Z" fill="white"/>
</mask>
<g mask="url(#mask13_837_15716)">
<path d="M133.129 34.3333H132.448V29.0082H133.129V34.3333ZM133.129 27.7581H132.448V26.7419H133.129V27.7581Z" fill="black"/>
</g>
<mask id="mask14_837_15716" style="mask-type:luminance" maskUnits="userSpaceOnUse" x="133" y="25" width="5" height="10">
<path d="M133.9 25.9935H137.89V34.5336H133.9V25.9935Z" fill="white"/>
</mask>
<g mask="url(#mask14_837_15716)">
<path d="M137.472 29.5668H136.202V34.3354H135.51V29.5668H134.278V29.0103H135.51V27.9942C135.523 27.191 135.523 27.134 135.594 26.9443C135.757 26.4974 136.158 26.2971 136.755 26.2971C137.013 26.2971 137.247 26.3414 137.472 26.3751V27.0223C137.293 26.9549 137.142 26.8874 136.812 26.8874C136.697 26.8874 136.414 26.8874 136.271 27.191C136.213 27.3238 136.213 27.3681 136.202 27.9372V29.0103H137.472" fill="black"/>
</g>
<mask id="mask15_837_15716" style="mask-type:luminance" maskUnits="userSpaceOnUse" x="137" y="28" width="7" height="7">
<path d="M137.89 28.6919H143.591V34.5335H137.89V28.6919Z" fill="white"/>
</mask>
<g mask="url(#mask15_837_15716)">
<path d="M142.284 31.1416C142.226 30.6715 142.072 30.214 141.698 29.8809C141.464 29.6785 141.086 29.4783 140.538 29.4783C139.574 29.4783 138.87 30.1254 138.739 31.1416H142.284ZM143.072 32.9272C142.987 33.119 142.838 33.4184 142.542 33.7325C142.377 33.899 141.838 34.4682 140.629 34.4682C138.776 34.4682 137.968 33.119 137.968 31.6328C137.968 29.8683 139.184 28.8859 140.547 28.8859C142.235 28.8859 143.116 30.2941 143.072 31.677H138.73C138.714 31.9574 138.739 32.3685 138.903 32.7838C139.351 33.8758 140.395 33.8758 140.629 33.8758C141.239 33.8758 141.943 33.6734 142.424 32.7606" fill="black"/>
</g>
<mask id="mask16_837_15716" style="mask-type:luminance" maskUnits="userSpaceOnUse" x="54" y="0" width="22" height="19">
<path d="M54.0913 0.723267H75.1835V18.4379H54.0913V0.723267Z" fill="white"/>
</mask>
<g mask="url(#mask16_837_15716)">
<path d="M61.6691 10.3237H65.6907L63.6977 4.657H63.6443L61.6691 10.3237ZM67.5189 0.733765L72.1462 13.9012C72.6984 15.5076 73.0859 15.8786 74.0523 15.8786H74.9965V18.1975H64.889V15.8786H65.7174C66.548 15.8786 67.245 15.7711 67.245 15.4844C67.245 15.2188 67.2094 14.9299 67.1025 14.5357L66.5235 12.6384H60.8719L60.5401 13.6925C60.235 14.6137 60.1259 15.0079 60.1259 15.3748C60.1259 15.8006 61.0924 15.8786 61.8428 15.8786H62.6422V18.1975H54.5055V15.8786H55.4452C56.4161 15.8786 56.8013 15.5076 57.358 13.9012L61.9808 0.733765" fill="black"/>
</g>
<mask id="mask17_837_15716" style="mask-type:luminance" maskUnits="userSpaceOnUse" x="74" y="0" width="17" height="19">
<path d="M74.0435 0.723267H90.5752V18.9776H74.0435V0.723267Z" fill="white"/>
</mask>
<g mask="url(#mask17_837_15716)">
<path d="M81.2004 12.0334C81.2004 14.7191 81.835 16.3276 83.3848 16.3276C84.9392 16.3276 85.5738 14.7191 85.5738 12.0334C85.5738 9.34549 84.9392 7.74331 83.3848 7.74331C81.835 7.74331 81.2004 9.34549 81.2004 12.0334ZM76.5998 3.97397C76.5998 3.23401 76.4061 2.8419 75.6022 2.8419H74.3307V0.733765H81.2004V7.29006C82.2225 6.18329 83.5229 5.47285 84.7677 5.47285C88.9229 5.47285 90.4683 8.55705 90.4683 12.0334C90.4683 15.5076 88.9229 18.5875 84.7677 18.5875C83.0241 18.5875 81.4743 18.0099 80.5034 16.5595L79.7017 18.1975H76.5998" fill="black"/>
</g>
<mask id="mask18_837_15716" style="mask-type:luminance" maskUnits="userSpaceOnUse" x="89" y="0" width="18" height="19">
<path d="M89.4351 0.723267H106.537V18.9776H89.4351V0.723267Z" fill="white"/>
</mask>
<g mask="url(#mask18_837_15716)">
<path d="M96.7345 12.0334C96.7345 14.7191 97.3714 16.3276 98.919 16.3276C100.469 16.3276 101.108 14.7191 101.108 12.0334C101.108 9.34549 100.469 7.74331 98.919 7.74331C97.3714 7.74331 96.7345 9.34549 96.7345 12.0334ZM92.1339 3.97397C92.1339 3.23401 91.9402 2.8419 91.1386 2.8419H89.8671V0.733765H96.7345V7.29006C97.7566 6.18329 99.0593 5.47285 100.304 5.47285C104.457 5.47285 106.009 8.55705 106.009 12.0334C106.009 15.5076 104.457 18.5875 100.304 18.5875C98.5583 18.5875 97.0084 18.0099 96.0353 16.5595L95.2359 18.1975H92.1339" fill="black"/>
</g>
<path d="M112.238 12.0334C112.238 15.1387 112.819 16.4816 114.482 16.4816C116.143 16.4816 116.725 15.1387 116.725 12.0334C116.725 8.92602 116.143 7.58314 114.482 7.58314C112.819 7.58314 112.238 8.92602 112.238 12.0334ZM121.626 12.0334C121.626 16.2455 118.606 18.5876 114.482 18.5876C110.354 18.5876 107.334 16.2455 107.334 12.0334C107.334 7.81715 110.354 5.4729 114.482 5.4729C118.606 5.4729 121.626 7.81715 121.626 12.0334Z" fill="black"/>
<mask id="mask19_837_15716" style="mask-type:luminance" maskUnits="userSpaceOnUse" x="121" y="0" width="23" height="19">
<path d="M121.358 0.723267H143.591V18.9776H121.358V0.723267Z" fill="white"/>
</mask>
<g mask="url(#mask19_837_15716)">
<path d="M141.368 12.2421V14.2997C141.368 15.5076 141.094 16.2223 140.039 16.2223C139.402 16.2223 139.097 15.7712 139.097 15.2188V7.97317H142.504V5.87136H139.097V0.972046H136.358C136.133 3.15818 135.416 5.87136 132.65 5.87136H128.326V0.972046H125.587C125.362 3.15818 124.643 5.87136 121.875 5.87136V7.97317H123.732V14.5885C123.732 17.2743 125.311 18.5876 128.161 18.5876C131.486 18.5876 132.811 17.1689 132.811 14.5885V12.2421H130.6V14.2997C130.6 15.5076 130.323 16.2223 129.268 16.2223C128.631 16.2223 128.326 15.7712 128.326 15.2188V7.97317H134.505V14.5885C134.505 17.2743 136.08 18.5876 138.93 18.5876C142.255 18.5876 143.589 17.1689 143.589 14.5885V12.2421" fill="black"/>
</g>
</g>
<defs>
<clipPath id="clip0_837_15716">
<rect width="142.8" height="34" fill="white" transform="translate(0.93335 0.628418)"/>
</clipPath>
</defs>
</svg>
